<?xml version="1.0" standalone="no"?>
<!DOCTYPE svg PUBLIC "-//W3C//DTD SVG 20010904//EN"
 "http://www.w3.org/TR/2001/REC-SVG-20010904/DTD/svg10.dtd">
<svg version="1.0" xmlns="http://www.w3.org/2000/svg"
 width="500.000000pt" height="500.000000pt" viewBox="0 0 500.000000 500.000000"
 preserveAspectRatio="xMidYMid meet">

<g transform="translate(0.000000,500.000000) scale(0.100000,-0.100000)"
fill="#000000" stroke="none">
<path d="M4653 4975 c-191 -73 -555 -413 -862 -802 -58 -75 -67 -82 -90 -75
-54 15 -154 6 -201 -18 -103 -53 -204 -149 -266 -256 -22 -37 -24 -48 -15 -78
5 -20 19 -47 30 -62 19 -24 19 -28 5 -56 -13 -25 -13 -35 -4 -59 14 -34 26
-37 35 -10 11 35 31 43 85 36 49 -7 50 -8 35 -25 -9 -10 -41 -28 -71 -41 l-55
-22 37 -33 c20 -19 38 -34 39 -34 1 0 21 28 44 63 22 35 56 77 75 94 l35 30
10 -26 c25 -64 24 -77 -16 -136 -47 -72 -49 -124 -7 -188 26 -40 26 -41 10
-72 -14 -26 -15 -36 -5 -58 15 -33 22 -34 47 -2 24 30 23 30 95 1 l58 -24 -33
-11 c-18 -7 -64 -16 -102 -21 -50 -6 -75 -15 -95 -32 -14 -13 -33 -28 -41 -34
-12 -7 -12 -5 1 6 20 19 42 60 36 66 -5 5 -132 -124 -176 -180 -38 -48 -41
-74 -3 -28 29 35 64 41 95 17 18 -13 17 -14 -5 -18 -13 -2 9 -5 49 -6 131 -2
238 60 301 177 29 52 22 56 -9 5 -44 -72 -108 -131 -165 -153 -30 -11 -67 -20
-81 -20 -25 0 -23 3 20 30 26 16 87 68 136 115 63 60 95 85 113 85 51 0 86 22
133 81 31 40 52 58 62 55 8 -3 28 -6 44 -6 39 0 38 -20 -5 -67 -18 -21 -56
-76 -84 -123 -28 -47 -75 -113 -106 -146 l-56 -62 28 -5 c15 -3 35 -9 44 -12
12 -5 21 3 33 29 23 48 85 102 133 117 l39 11 6 65 c4 35 9 68 13 74 5 9 54
-50 54 -66 0 -4 -9 -20 -20 -35 l-20 -28 25 -6 c32 -8 75 2 72 18 -3 15 55 15
60 -1 2 -6 -5 -19 -15 -30 -20 -18 -20 -19 23 -65 l42 -47 22 30 c37 50 94 72
173 67 l68 -5 -1 91 c0 65 -7 117 -25 181 -14 50 -25 99 -25 110 0 11 1 49 1
84 1 52 -4 75 -28 123 l-29 58 33 49 c146 216 347 621 446 896 63 175 63 311
1 386 -53 63 -127 74 -230 34z m185 -15 c49 -30 74 -93 73 -186 0 -93 -46
-236 -146 -454 -126 -276 -360 -694 -395 -705 -9 -3 -40 -41 -69 -85 -28 -44
-61 -85 -72 -91 -15 -8 -43 -8 -98 0 -101 13 -134 26 -127 49 46 155 46 231 0
270 -44 38 -111 28 -208 -32 -42 -26 -83 -45 -91 -43 -23 9 -98 172 -92 199 4
13 31 57 62 97 30 41 55 78 55 82 0 5 30 46 67 91 267 332 579 645 750 755
115 73 224 93 291 53z m-845 -1246 c17 -18 -60 -124 -90 -124 -31 0 6 84 50
115 24 16 31 18 40 9z m417 -230 c0 -32 -18 -66 -31 -59 -12 8 -12 37 1 70 12
31 30 24 30 -11z"/>
<path d="M4715 4933 c-72 -37 -179 -121 -260 -202 -38 -39 -75 -71 -81 -71 -7
0 -17 15 -24 33 l-11 32 -141 -144 c-172 -177 -448 -498 -448 -521 0 -4 -27
-45 -61 -91 -68 -94 -67 -93 -18 -196 16 -34 29 -67 29 -72 0 -27 19 -5 59 67
57 101 179 296 249 397 50 73 55 84 54 130 -2 39 5 61 29 103 33 58 104 112
148 112 18 0 56 33 153 134 150 157 230 223 334 277 41 21 67 39 57 39 -10 -1
-40 -13 -68 -27z"/>
<path d="M4390 4594 c0 -29 160 -164 194 -164 6 0 -11 13 -39 29 -27 16 -74
54 -102 84 -29 31 -53 54 -53 51z"/>
<path d="M4263 4499 c-245 -47 -244 -386 3 -479 166 -62 334 44 334 212 0 160
-175 299 -337 267z m159 -98 c27 -18 57 -48 73 -76 23 -39 27 -54 23 -103 -5
-69 -27 -104 -84 -132 -55 -27 -109 -25 -173 6 -132 66 -153 240 -38 313 51
33 140 29 199 -8z"/>
<path d="M4610 4420 c8 -5 22 -9 30 -9 10 0 8 3 -5 9 -27 12 -43 12 -25 0z"/>
<path d="M4673 4403 c9 -2 23 -2 30 0 6 3 -1 5 -18 5 -16 0 -22 -2 -12 -5z"/>
<path d="M4034 4011 c-39 -24 -58 -69 -51 -124 15 -111 167 -141 227 -45 50
79 -9 188 -102 188 -24 0 -56 -8 -74 -19z m111 -42 c4 -5 -9 -33 -29 -61 -27
-39 -33 -55 -25 -65 18 -20 -5 -16 -32 7 -20 16 -21 19 -7 20 9 0 31 20 48 44
28 41 29 46 13 55 -16 9 -16 10 4 11 12 0 25 -5 28 -11z"/>
<path d="M1598 4961 c-99 -32 -182 -93 -223 -165 -9 -16 -16 -15 -100 13 -155
52 -273 51 -390 -3 -59 -27 -129 -86 -151 -127 -7 -15 -20 -69 -28 -121 -8
-51 -19 -105 -24 -119 -23 -57 -86 -89 -237 -119 -187 -37 -243 -120 -270
-398 -7 -77 -13 -85 -83 -124 -17 -9 -44 -35 -61 -59 l-31 -42 0 -223 0 -223
48 -62 c55 -74 149 -141 230 -166 37 -12 90 -18 152 -18 79 0 108 5 176 29
l81 28 49 -49 c71 -71 141 -97 264 -98 107 0 176 18 340 87 62 27 132 47 205
60 127 22 209 58 241 106 12 17 29 65 38 106 24 106 35 114 226 146 139 23
202 50 253 110 45 53 57 99 61 250 7 215 25 245 171 275 98 21 135 41 181 102
196 257 26 659 -308 729 -89 19 -176 12 -267 -21 l-63 -23 -46 34 c-127 98
-293 130 -434 85z m38 -259 c23 -16 24 -43 1 -51 -28 -10 -50 15 -36 41 11 19
18 22 35 10z m618 -35 c-9 -23 -41 -21 -47 3 -7 26 22 44 41 26 7 -7 10 -20 6
-29z m-350 -18 c33 -26 56 -70 55 -106 -1 -29 -3 -25 -13 19 -7 32 -52 87 -80
98 -15 6 -16 9 -5 9 9 1 28 -8 43 -20z m-124 -92 c28 -21 50 -61 50 -87 -1
-20 -4 -17 -15 15 -8 22 -26 50 -40 63 -27 23 -22 31 5 9z m709 -6 c17 -17 18
-24 8 -45 -10 -20 -17 -24 -37 -19 -30 7 -26 3 -33 33 -6 25 -4 27 41 49 1 0
11 -8 21 -18z m-1188 -11 c18 0 9 -45 -12 -58 -12 -7 -22 -12 -23 -10 -1 2 -7
11 -15 20 -16 22 3 62 26 54 8 -3 19 -6 24 -6z m412 -122 c7 -24 5 -23 -29 27
l-26 40 25 -23 c14 -13 27 -33 30 -44z m-112 -35 c13 -16 12 -17 -3 -4 -10 7
-18 15 -18 17 0 8 8 3 21 -13z m-691 -23 c8 -16 8 -24 -3 -35 -18 -18 -60 -8
-53 12 3 8 6 18 6 23 0 5 8 11 18 13 9 3 18 5 19 6 1 0 7 -8 13 -19z m1157
-31 c-17 -27 -55 -25 -59 4 -4 30 30 50 54 29 14 -11 15 -18 5 -33z m-534 13
c9 -8 17 -26 17 -40 0 -21 -2 -23 -16 -11 -15 12 -44 61 -44 74 0 8 19 -3 43
-23z m307 -48 c12 -32 -7 -55 -39 -47 -31 8 -30 60 2 66 12 2 23 5 25 6 1 0 7
-11 12 -25z m-1361 -76 c14 -17 15 -26 7 -45 -6 -13 -17 -21 -24 -18 -8 3 -20
5 -27 5 -23 0 -23 53 0 67 11 6 22 11 23 12 2 1 12 -9 21 -21z m1731 2 c15
-11 35 -38 44 -60 25 -63 18 -71 -11 -12 -15 32 -38 61 -57 73 -17 10 -25 19
-18 19 8 0 26 -9 42 -20z m-1514 -65 c3 -14 3 -78 -2 -143 -4 -64 -7 -136 -5
-159 2 -28 -7 -68 -27 -120 -17 -43 -40 -114 -52 -158 -51 -184 -120 -329
-148 -311 -14 8 -15 175 -2 216 10 31 12 21 11 -55 -2 -78 9 -96 37 -60 37 47
116 294 100 311 -4 4 -28 1 -53 -6 -39 -11 -51 -10 -89 4 -57 22 -83 51 -96
110 -10 47 -10 51 18 85 34 43 92 78 144 86 34 6 38 11 54 58 29 90 73 167 95
167 5 0 11 -11 15 -25z m1393 -31 c13 -9 29 -32 37 -50 21 -50 16 -65 -5 -18
-10 22 -31 50 -46 62 -32 25 -21 30 14 6z m-606 -40 c3 -4 -29 -41 -71 -83
-76 -77 -136 -166 -179 -265 -21 -50 -44 -68 -58 -46 -15 25 109 213 213 322
74 77 83 84 95 72z m-210 -37 c56 -24 61 -38 27 -84 -16 -22 -55 -58 -85 -78
-53 -37 -55 -38 -75 -20 -52 47 -29 143 42 175 52 23 50 23 91 7z m737 -47 c7
-17 10 -33 6 -37 -3 -3 -6 1 -6 10 0 8 -12 30 -27 48 -23 27 -24 30 -7 21 12
-6 27 -25 34 -42z m-175 -85 c23 -22 34 -65 18 -65 -8 0 -63 74 -63 84 0 14
23 4 45 -19z m-705 -212 c0 -13 -3 -13 -15 -3 -8 7 -15 19 -15 27 0 13 3 13
15 3 8 -7 15 -19 15 -27z m-910 -24 c0 -10 5 -21 10 -24 16 -10 12 -20 -18
-42 l-28 -20 -29 23 c-23 19 -27 26 -17 36 6 6 12 19 12 28 0 12 10 16 35 16
27 0 35 -4 35 -17z m868 3 c6 -18 -15 -14 -22 4 -4 10 -1 14 6 12 6 -2 14 -10
16 -16z m44 -298 c-5 -30 -43 -36 -57 -9 -8 15 -7 23 5 35 22 22 58 4 52 -26z
m-968 14 c17 -16 8 -48 -14 -48 -21 0 -32 34 -17 49 14 14 15 14 31 -1z m1349
-130 c7 -24 -19 -44 -37 -29 -19 16 -9 47 14 47 10 0 21 -8 23 -18z"/>
<path d="M642 4078 c-14 -19 -52 -96 -52 -107 0 -12 59 -43 70 -36 10 6 19 95
13 128 -6 29 -15 34 -31 15z"/>
<path d="M3170 3565 l-23 -25 31 0 c33 0 35 3 23 33 -6 16 -9 16 -31 -8z"/>
<path d="M3310 3580 c-18 -12 -2 -12 25 0 13 6 15 9 5 9 -8 0 -22 -4 -30 -9z"/>
<path d="M3411 3294 c0 -11 3 -14 6 -6 3 7 2 16 -1 19 -3 4 -6 -2 -5 -13z"/>
<path d="M3403 3200 c0 -25 2 -35 4 -22 2 12 2 32 0 45 -2 12 -4 2 -4 -23z"/>
<path d="M3422 3185 c0 -16 2 -22 5 -12 2 9 2 23 0 30 -3 6 -5 -1 -5 -18z"/>
<path d="M2974 3168 c-14 -22 -17 -184 -5 -252 14 -83 46 -185 65 -211 14 -20
14 -20 37 0 20 18 22 18 16 2 -13 -36 13 -5 47 56 32 57 90 255 111 375 l7 42
-136 0 c-96 0 -137 -4 -142 -12z"/>
<path d="M3506 2733 c-121 -51 -173 -53 -273 -12 -38 15 -62 5 -125 -51 l-39
-35 31 -47 c17 -26 68 -81 112 -123 63 -60 102 -86 182 -125 361 -175 776 -61
995 274 28 43 51 82 51 87 0 5 -197 9 -441 9 l-441 0 6 25 c4 14 5 24 4 24 -2
-1 -30 -12 -62 -26z"/>
<path d="M2397 2061 c-29 -27 -70 -58 -92 -69 -22 -11 -76 -52 -119 -91 -144
-130 -181 -140 -202 -56 -13 48 -38 80 -56 69 -19 -12 -44 -77 -84 -217 -23
-82 -45 -151 -48 -154 -19 -19 -34 66 -35 199 -1 109 -5 120 -37 106 -31 -14
-33 -11 -43 51 -10 65 -20 75 -63 67 -40 -7 -110 -65 -188 -153 -30 -34 -58
-62 -61 -63 -3 0 -1 25 4 55 11 61 1 85 -37 85 -20 -1 -112 -47 -200 -100 -37
-22 -39 -23 -32 -5 4 11 10 38 13 60 l4 40 -23 -25 c-59 -64 -299 -228 -583
-398 l-190 -114 -115 6 c-63 3 -136 9 -162 12 l-48 7 0 -47 c0 -38 3 -46 18
-46 10 0 31 -13 46 -29 l29 -30 -47 -22 -46 -23 0 -388 0 -388 50 0 50 0 0
-105 0 -105 -50 0 -50 0 0 -95 c0 -57 4 -95 10 -95 6 0 10 9 10 20 0 17 7 20
40 20 33 0 40 3 40 20 0 11 -4 20 -10 20 -11 0 -14 80 -2 81 80 7 103 19 83
43 -8 9 -11 44 -9 103 3 88 3 88 31 91 l27 3 0 -90 c0 -49 -4 -101 -10 -115
-9 -24 -7 -26 18 -26 25 -1 25 -2 10 -14 -25 -19 -23 -46 3 -46 15 0 19 -5 15
-15 -4 -10 1 -14 17 -12 16 1 23 -4 25 -20 3 -20 9 -23 53 -23 27 0 49 5 49
10 0 6 -7 10 -15 10 -8 0 -15 6 -15 14 0 9 -13 16 -32 19 -18 2 -9 3 20 2 28
-1 52 2 52 7 0 4 -7 8 -15 8 -9 0 -15 9 -15 24 0 24 -2 24 -54 19 -34 -4 -56
-2 -60 6 -5 8 12 11 58 11 l66 0 2 38 c1 36 1 36 5 5 l4 -33 60 0 c52 0 59 2
59 20 0 17 7 20 40 20 27 0 38 4 35 12 -4 10 9 12 50 10 30 -2 55 -7 55 -12 0
-4 18 -10 40 -12 22 -2 40 0 40 5 0 4 21 7 47 5 38 -2 50 -8 57 -24 7 -15 22
-24 50 -28 65 -10 196 -12 196 -3 0 5 5 5 11 2 6 -4 24 -8 40 -9 17 -1 34 -8
39 -15 11 -18 51 -5 43 15 -3 8 1 14 11 14 9 0 16 -4 16 -9 0 -5 27 -9 60 -9
33 0 60 4 60 9 0 14 20 11 36 -6 9 -8 33 -16 55 -16 48 -2 49 -2 74 -16 11 -6
37 -14 58 -18 31 -6 37 -4 37 10 0 15 1 15 16 1 16 -17 74 -22 74 -7 0 11 -49
21 -121 24 -43 1 -65 9 -98 31 -40 28 -48 30 -169 33 l-127 3 -6 88 c-4 48 -7
140 -8 206 l-1 118 48 44 c52 48 92 61 150 47 20 -4 55 -6 77 -3 38 5 40 7 52
54 12 50 37 86 59 86 7 0 21 -11 31 -23 15 -20 31 -25 93 -30 48 -4 87 -2 107
5 25 9 36 9 45 0 15 -15 21 -198 7 -240 -13 -40 -65 -81 -119 -93 -59 -13
-154 4 -196 36 -29 22 -35 24 -40 11 -12 -32 6 -66 46 -86 39 -20 42 -20 70
-3 29 17 32 17 64 -1 38 -20 79 -17 128 8 l27 14 16 -54 16 -54 207 0 c114 0
231 -3 260 -7 47 -5 53 -8 50 -27 -3 -21 -6 -21 -207 -17 -189 3 -204 2 -198
-14 4 -9 7 -25 7 -36 0 -18 8 -19 115 -19 l115 0 0 -56 c0 -53 1 -56 23 -51
l22 6 -22 -19 c-14 -10 -23 -29 -23 -45 l0 -27 70 4 c61 3 70 1 70 -14 0 -16
11 -18 100 -18 82 0 100 3 100 15 0 8 7 15 15 15 8 0 15 9 15 20 0 11 7 20 15
20 8 0 15 -6 15 -14 0 -8 9 -18 20 -21 11 -3 20 -13 20 -21 0 -8 10 -14 25
-14 16 0 25 6 25 15 0 17 16 20 26 4 6 -10 26 -9 84 5 21 5 22 5 5 -3 -14 -7
20 -10 110 -10 72 -1 223 -2 338 -4 162 -2 207 0 207 10 0 7 7 13 15 13 8 0
15 -7 15 -15 0 -9 9 -15 25 -15 16 0 25 6 25 15 0 10 11 15 35 15 28 0 35 4
35 20 0 15 7 20 24 20 14 0 27 3 29 8 3 4 61 8 129 10 90 2 119 0 108 -8 -11
-8 -4 -10 30 -5 25 4 70 7 100 8 46 2 55 -1 55 -15 0 -30 21 -43 40 -24 17 16
57 14 82 -6 15 -12 33 -2 33 18 0 11 18 14 88 14 49 0 91 2 94 5 10 11 -5 65
-19 65 -8 0 -11 5 -8 10 3 6 20 10 38 10 29 0 30 -1 11 -15 -16 -13 -16 -14
-1 -9 11 4 17 1 17 -10 0 -9 5 -16 10 -16 6 0 10 6 10 13 0 20 71 56 77 40 3
-8 20 -13 41 -12 21 0 31 3 25 6 -7 2 -13 11 -13 19 0 10 6 11 23 5 24 -9 47
-4 47 10 0 12 -56 12 -79 0 -25 -14 -101 7 -94 25 3 8 13 14 23 14 22 0 148
116 195 180 l37 50 89 0 89 0 0 245 c0 157 -4 245 -10 245 -5 0 -10 -5 -10
-10 0 -14 -98 -60 -126 -60 -11 0 -31 12 -45 26 -13 15 -44 36 -69 48 -44 21
-58 21 -654 24 l-608 3 4 55 c13 157 199 238 318 137 27 -22 35 -24 56 -14 34
15 114 13 144 -4 35 -20 38 -19 45 14 3 17 20 49 37 72 l30 41 -19 36 c-14 26
-33 42 -80 63 -35 16 -71 29 -80 29 -60 0 -264 129 -483 304 -79 64 -147 116
-151 116 -4 0 -12 -7 -19 -15 -18 -21 -38 -19 -72 10 -16 14 -34 25 -39 25
-17 0 -23 -32 -11 -63 6 -17 9 -33 7 -36 -3 -2 -42 31 -88 75 -91 89 -146 133
-194 158 -41 20 -50 20 -62 -2 -21 -39 37 -188 138 -356 72 -118 69 -140 -14
-100 -76 37 -154 99 -348 281 l-179 167 6 39 c4 22 13 52 22 68 8 16 12 29 9
29 -4 0 -30 -22 -58 -49z m-787 -1601 c0 -5 -4 -10 -10 -10 -5 0 -10 5 -10 10
0 6 5 10 10 10 6 0 10 -4 10 -10z m40 -10 c0 -5 -5 -10 -11 -10 -5 0 -7 5 -4
10 3 6 8 10 11 10 2 0 4 -4 4 -10z m170 0 c0 -5 -4 -10 -10 -10 -5 0 -10 5
-10 10 0 6 5 10 10 10 6 0 10 -4 10 -10z m2646 -18 c-27 -52 -41 -56 -59 -16
-10 19 -21 33 -26 29 -5 -3 -12 -1 -16 5 -4 6 16 10 55 10 l61 0 -15 -28z
m-2686 8 c0 -5 -4 -10 -10 -10 -5 0 -10 5 -10 10 0 6 5 10 10 10 6 0 10 -4 10
-10z m1270 -86 c0 -44 -1 -46 -44 -65 -50 -22 -153 -45 -162 -36 -4 3 10 33
30 66 39 63 42 65 136 74 19 2 36 5 38 5 1 1 2 -19 2 -44z m120 42 c0 -3 -4
-8 -10 -11 -5 -3 -10 -1 -10 4 0 6 5 11 10 11 6 0 10 -2 10 -4z m189 -12 l31
-7 -31 -53 -30 -54 58 -1 c97 -2 119 -14 38 -22 -121 -12 -167 -9 -204 14
l-34 20 54 55 c54 55 63 59 118 48z m-2825 -56 l88 -30 82 16 c87 17 210 35
239 36 14 0 17 -10 17 -61 l0 -62 -37 7 c-182 31 -249 37 -390 34 l-153 -3 0
53 0 54 33 -7 c17 -4 72 -20 121 -37z m636 -54 c0 -72 -1 -74 -25 -74 -24 0
-25 2 -25 73 0 41 3 76 6 79 3 3 14 4 25 1 17 -5 19 -14 19 -79z m3225 76
c-26 -42 -234 -96 -219 -57 6 17 23 23 139 51 74 18 88 19 80 6z m-1610 -20
c-3 -5 -15 -10 -25 -10 -10 0 -22 5 -25 10 -4 6 7 10 25 10 18 0 29 -4 25 -10z
m-245 -14 c0 -2 -7 -9 -15 -16 -12 -10 -15 -10 -15 4 0 9 7 16 15 16 8 0 15
-2 15 -4z m89 -36 c-24 -42 -34 -48 -42 -27 -8 21 26 57 61 66 2 1 -7 -17 -19
-39z m1249 18 c-11 -17 -27 -24 -57 -26 -44 -3 -47 -1 -31 29 8 14 21 19 57
19 45 0 45 0 31 -22z m-151 -45 c-20 -2 -52 -2 -70 0 -17 2 0 4 38 4 39 0 53
-2 32 -4z m-1037 -38 c-7 -9 -15 -13 -19 -10 -3 3 1 10 9 15 21 14 24 12 10
-5z m100 5 c0 -5 -2 -10 -4 -10 -3 0 -8 5 -11 10 -3 6 -1 10 4 10 6 0 11 -4
11 -10z m22 -22 c-8 -8 -9 -4 -5 13 4 13 8 18 11 10 2 -7 -1 -18 -6 -23z m562
-3 c-4 -8 -11 -15 -16 -15 -6 0 -5 6 2 15 7 8 14 15 16 15 2 0 1 -7 -2 -15z
m206 -5 c0 -5 -2 -10 -4 -10 -3 0 -8 5 -11 10 -3 6 -1 10 4 10 6 0 11 -4 11
-10z m980 -4 c0 -2 -7 -9 -15 -16 -12 -10 -15 -10 -15 4 0 9 7 16 15 16 8 0
15 -2 15 -4z m-1880 -76 c11 -22 16 -40 10 -40 -6 0 -15 12 -20 26 -9 22 -14
25 -38 19 -15 -4 -29 -10 -32 -15 -6 -10 -56 -30 -73 -30 -7 0 13 14 43 31 30
16 59 34 64 39 17 17 25 11 46 -30z m398 33 c-16 -2 -40 -2 -55 0 -16 2 -3 4
27 4 30 0 43 -2 28 -4z m255 0 c-13 -2 -35 -2 -50 0 -16 2 -5 4 22 4 28 0 40
-2 28 -4z m224 1 c-3 -3 -12 -4 -19 -1 -8 3 -5 6 6 6 11 1 17 -2 13 -5z m140
0 c-3 -3 -12 -4 -19 -1 -8 3 -5 6 6 6 11 1 17 -2 13 -5z m-1207 -46 c0 -16 -3
-19 -8 -10 -5 7 -16 10 -25 6 -9 -3 -17 -2 -17 4 0 11 16 20 38 21 6 1 12 -9
12 -21z m1918 15 c-10 -2 -26 -2 -35 0 -10 3 -2 5 17 5 19 0 27 -2 18 -5z
m-1638 -18 c0 -8 -7 -15 -16 -15 -14 0 -14 3 -4 15 7 8 14 15 16 15 2 0 4 -7
4 -15z m196 8 c-9 -9 -129 -33 -135 -27 -2 2 10 7 28 10 17 4 34 11 37 15 3 5
21 9 41 9 20 0 33 -3 29 -7z m187 -18 c29 -25 35 -45 15 -45 -7 1 -23 16 -35
35 -26 41 -19 44 20 10z m77 5 c-6 -11 -15 -20 -20 -20 -6 0 -5 9 2 20 7 11
16 20 21 20 4 0 3 -9 -3 -20z m110 16 c0 -3 -4 -8 -10 -11 -5 -3 -10 -1 -10 4
0 6 5 11 10 11 6 0 10 -2 10 -4z m180 -17 c-7 -11 -14 -18 -17 -15 -3 3 -18
-1 -34 -9 -33 -17 -49 -19 -49 -5 0 6 9 10 19 10 10 0 29 9 42 20 33 27 53 27
39 -1z m150 9 c0 -4 -4 -10 -10 -13 -5 -3 -10 -1 -10 5 0 6 -4 8 -10 5 -5 -3
-10 -2 -10 4 0 5 9 9 20 8 11 -1 20 -5 20 -9z m-1260 -8 c0 -5 -12 -10 -27
-10 -22 0 -25 2 -13 10 20 13 40 13 40 0z m1769 -26 c-15 -18 -22 -13 -13 10
3 9 10 13 16 10 5 -3 4 -12 -3 -20z m-3832 0 c-3 -3 -12 -4 -19 -1 -8 3 -5 6
6 6 11 1 17 -2 13 -5z m2383 2 c0 -3 -4 -8 -10 -11 -5 -3 -10 -1 -10 4 0 6 5
11 10 11 6 0 10 -2 10 -4z m187 -32 c-3 -3 -12 -4 -19 -1 -8 3 -5 6 6 6 11 1
17 -2 13 -5z m193 2 c0 -3 -4 -8 -10 -11 -5 -3 -10 -1 -10 4 0 6 5 11 10 11 6
0 10 -2 10 -4z m-153 -12 c-3 -3 -12 -4 -19 -1 -8 3 -5 6 6 6 11 1 17 -2 13
-5z"/>
<path d="M1591 811 c-12 -22 -5 -51 13 -51 6 0 20 7 31 16 15 11 17 18 9 32
-16 25 -41 26 -53 3z"/>
<path d="M1839 774 c-16 -20 -1 -48 28 -52 15 -2 22 4 25 20 2 13 3 29 0 36
-5 17 -37 15 -53 -4z"/>
<path d="M1650 696 c0 -2 7 -7 16 -10 8 -3 12 -2 9 4 -6 10 -25 14 -25 6z"/>
<path d="M1714 633 c1 -19 24 -39 33 -29 4 3 1 6 -5 6 -7 0 -12 9 -12 20 0 11
-4 20 -9 20 -5 0 -8 -8 -7 -17z"/>
<path d="M1558 593 c7 -3 16 -2 19 1 4 3 -2 6 -13 5 -11 0 -14 -3 -6 -6z"/>
<path d="M1858 563 c7 -3 16 -2 19 1 4 3 -2 6 -13 5 -11 0 -14 -3 -6 -6z"/>
<path d="M1916 249 c-3 -17 -15 -43 -25 -58 -18 -25 -18 -27 -2 -28 9 -1 26
12 36 28 14 20 28 29 48 29 17 0 27 5 27 14 0 8 3 21 6 30 5 12 0 16 -22 15
-25 0 -26 -1 -9 -9 19 -8 19 -9 -2 -9 -13 -1 -23 4 -23 9 0 24 -28 7 -34 -21z"/>
<path d="M4840 174 c0 -8 10 -14 25 -14 15 0 25 6 25 14 0 8 -10 14 -25 14
-15 0 -25 -6 -25 -14z"/>
<path d="M4911 174 c0 -11 3 -14 6 -6 3 7 2 16 -1 19 -3 4 -6 -2 -5 -13z"/>
<path d="M396 161 c-4 -5 -2 -12 3 -15 5 -4 12 -2 15 3 4 5 2 12 -3 15 -5 4
-12 2 -15 -3z"/>
<path d="M688 153 c12 -2 30 -2 40 0 9 3 -1 5 -23 4 -22 0 -30 -2 -17 -4z"/>
<path d="M1000 135 c0 -18 5 -25 20 -25 11 0 20 7 20 15 0 7 8 19 18 24 14 8
10 10 -20 11 -34 0 -38 -3 -38 -25z"/>
<path d="M554 135 c19 -14 18 -15 -8 -40 -27 -25 -35 -26 -83 -8 -9 3 -13 -4
-13 -21 l0 -26 110 0 c101 0 110 2 110 19 0 29 27 34 34 5 6 -24 8 -24 115
-24 106 0 110 -1 114 -22 l4 -23 2 23 c1 20 6 22 50 22 32 0 51 5 54 13 10 26
-8 34 -76 35 -65 1 -97 14 -97 41 0 12 -39 25 -48 16 -4 -4 -1 -10 6 -12 35
-13 3 -23 -73 -23 -66 0 -85 3 -85 14 0 19 -23 26 -83 26 -48 -1 -50 -2 -33
-15z m66 -15 c0 -5 -4 -10 -10 -10 -5 0 -10 5 -10 10 0 6 5 10 10 10 6 0 10
-4 10 -10z"/>
<path d="M4948 143 c6 -2 18 -2 25 0 6 3 1 5 -13 5 -14 0 -19 -2 -12 -5z"/>
<path d="M1635 80 c3 -5 10 -10 16 -10 5 0 9 5 9 10 0 6 -7 10 -16 10 -8 0
-12 -4 -9 -10z"/>
<path d="M4790 75 c0 -18 -14 -19 -42 -4 -14 8 -23 8 -31 0 -8 -8 -4 -11 16
-11 15 0 27 -4 27 -10 0 -6 32 -10 75 -10 59 0 75 -3 75 -14 0 -10 -14 -16
-42 -19 -33 -3 -30 -4 12 -3 44 1 55 5 58 19 2 10 -3 17 -12 17 -10 0 -16 9
-16 25 0 24 -3 25 -60 25 -47 0 -60 -3 -60 -15z"/>
<path d="M3738 63 c6 -2 18 -2 25 0 6 3 1 5 -13 5 -14 0 -19 -2 -12 -5z"/>
</g>
</svg>
