<?xml version="1.0" encoding="UTF-8" standalone="no"?>
<svg
   xmlns:dc="http://purl.org/dc/elements/1.1/"
   xmlns:cc="http://creativecommons.org/ns#"
   xmlns:rdf="http://www.w3.org/1999/02/22-rdf-syntax-ns#"
   xmlns:svg="http://www.w3.org/2000/svg"
   xmlns="http://www.w3.org/2000/svg"
   xmlns:sodipodi="http://sodipodi.sourceforge.net/DTD/sodipodi-0.dtd"
   xmlns:inkscape="http://www.inkscape.org/namespaces/inkscape"
   id="svg5337"
   version="1.1"
   viewBox="0 0 213.80016 142.13109"
   height="142.13109mm"
   width="213.80017mm"
   sodipodi:docname="Mount Fuji - Japan - Black.svg"
   inkscape:version="0.92.1 r15371">
  <sodipodi:namedview
     pagecolor="#ffffff"
     bordercolor="#666666"
     borderopacity="1"
     objecttolerance="10"
     gridtolerance="10"
     guidetolerance="10"
     inkscape:pageopacity="0"
     inkscape:pageshadow="2"
     inkscape:window-width="1551"
     inkscape:window-height="876"
     id="namedview6699"
     showgrid="false"
     inkscape:zoom="1.0679562"
     inkscape:cx="404.03182"
     inkscape:cy="268.59418"
     inkscape:window-x="49"
     inkscape:window-y="24"
     inkscape:window-maximized="1"
     inkscape:current-layer="svg5337" />
  <title
     id="title6516">Mount Fuji with Japan Typeface - Black</title>
  <defs
     id="defs5331" />
  <metadata
     id="metadata5334">
    <rdf:RDF>
      <cc:Work
         rdf:about="">
        <dc:format>image/svg+xml</dc:format>
        <dc:type
           rdf:resource="http://purl.org/dc/dcmitype/StillImage" />
        <dc:title>Mount Fuji with Japan Typeface - Black</dc:title>
        <dc:date>2017-10-03</dc:date>
        <dc:creator>
          <cc:Agent>
            <dc:title>Urs Roesch</dc:title>
          </cc:Agent>
        </dc:creator>
        <cc:license
           rdf:resource="http://creativecommons.org/publicdomain/zero/1.0/" />
        <dc:language>en</dc:language>
        <dc:subject>
          <rdf:Bag>
            <rdf:li>remix+222541</rdf:li>
            <rdf:li>mount fuji</rdf:li>
            <rdf:li>fuji</rdf:li>
            <rdf:li>japan</rdf:li>
            <rdf:li>logo</rdf:li>
            <rdf:li>black and white</rdf:li>
            <rdf:li>coloring book</rdf:li>
            <rdf:li>mountain</rdf:li>
            <rdf:li>outline</rdf:li>
            <rdf:li>clipart</rdf:li>
            <rdf:li>富士山</rdf:li>
            <rdf:li>山</rdf:li>
            <rdf:li>日本</rdf:li>
          </rdf:Bag>
        </dc:subject>
        <dc:description>Mount Fuji with Japan typeface. </dc:description>
        <dc:publisher>
          <cc:Agent>
            <dc:title>OpenClipart</dc:title>
          </cc:Agent>
        </dc:publisher>
      </cc:Work>
      <cc:License
         rdf:about="http://creativecommons.org/publicdomain/zero/1.0/">
        <cc:permits
           rdf:resource="http://creativecommons.org/ns#Reproduction" />
        <cc:permits
           rdf:resource="http://creativecommons.org/ns#Distribution" />
        <cc:permits
           rdf:resource="http://creativecommons.org/ns#DerivativeWorks" />
      </cc:License>
    </rdf:RDF>
  </metadata>
  <g
     style="display:inline"
     id="layer7">
    <g
       id="g6408"
       style="display:inline"
       transform="translate(3.5080333,-56.646797)">
      <rect
         style="opacity:1;fill:#ffffff;fill-opacity:1;stroke:none;stroke-width:1.60627067;stroke-linecap:round;stroke-linejoin:round;stroke-miterlimit:4;stroke-dasharray:none;stroke-dashoffset:0;stroke-opacity:1"
         id="rect6406"
         width="213.80017"
         height="142.13109"
         x="-3.5080333"
         y="56.646797" />
      <rect
         style="display:inline;opacity:1;fill:#000000;fill-opacity:1;stroke:none;stroke-width:1.60627067;stroke-linecap:round;stroke-linejoin:round;stroke-miterlimit:4;stroke-dasharray:none;stroke-dashoffset:0;stroke-opacity:1"
         id="rect6460"
         width="213.80017"
         height="142.13109"
         x="-3.5080333"
         y="56.646797" />
    </g>
    <g
       id="g6443"
       style="display:inline"
       transform="translate(3.5080333,-56.646797)" />
    <g
       id="g6431"
       style="display:inline"
       transform="translate(3.5080333,-56.646797)">
      <path
         style="color:#000000;font-style:normal;font-variant:normal;font-weight:normal;font-stretch:normal;font-size:medium;line-height:normal;font-family:sans-serif;font-variant-ligatures:normal;font-variant-position:normal;font-variant-caps:normal;font-variant-numeric:normal;font-variant-alternates:normal;font-feature-settings:normal;text-indent:0;text-align:start;text-decoration:none;text-decoration-line:none;text-decoration-style:solid;text-decoration-color:#000000;letter-spacing:normal;word-spacing:normal;text-transform:none;writing-mode:lr-tb;direction:ltr;text-orientation:mixed;dominant-baseline:auto;baseline-shift:baseline;text-anchor:start;white-space:normal;shape-padding:0;clip-rule:nonzero;display:inline;overflow:visible;visibility:visible;opacity:1;isolation:auto;mix-blend-mode:normal;color-interpolation:sRGB;color-interpolation-filters:linearRGB;solid-color:#000000;solid-opacity:1;vector-effect:none;fill:#ffffff;fill-opacity:1;fill-rule:evenodd;stroke:none;stroke-width:1.61674047;stroke-linecap:round;stroke-linejoin:round;stroke-miterlimit:4;stroke-dasharray:none;stroke-dashoffset:0;stroke-opacity:1;color-rendering:auto;image-rendering:auto;shape-rendering:auto;text-rendering:auto;enable-background:accumulate"
         d="m 125.71985,83.497121 c -0.0528,0.0014 -0.10539,0.0081 -0.15693,0.01977 -15.00896,3.415159 -30.070607,3.315472 -44.339954,0.0024 -0.05259,-0.01248 -0.106296,-0.01969 -0.160319,-0.02145 -0.456555,-0.01336 -0.833516,0.353883 -0.832088,0.810632 0.0699,15.938067 -12.669249,35.305277 -29.182874,50.572107 -16.51362,15.26684 -36.788206,26.40776 -51.1293011,26.40775 -1.1049555,-0.0275 -1.1049555,1.64422 0,1.61676 15.1640931,0 35.5210841,-11.39026 52.2278371,-26.83564 6.825148,-6.30986 13.025423,-13.29968 17.972849,-20.50468 -0.116782,0.55244 -0.196212,1.08289 -0.215081,1.57723 -0.03188,0.8352 0.08453,1.63293 0.608542,2.24901 0.524026,0.61609 1.404943,0.84632 2.340457,0.71467 1.607028,-0.22615 2.919093,-1.35106 4.11979,-2.74577 1.200695,-1.3947 2.311004,-3.11753 3.407377,-4.76839 1.096369,-1.65087 2.182763,-3.23096 3.247056,-4.30551 1.064299,-1.07455 2.011585,-1.58025 2.94674,-1.45982 0.175534,0.0226 0.334418,0.10779 0.554913,0.39684 0.220494,0.28907 0.451146,0.76608 0.652572,1.3633 0.402857,1.19444 0.700617,2.85241 0.99636,4.51718 0.29574,1.66479 0.587532,3.33437 1.064664,4.67018 0.238565,0.66791 0.519298,1.25972 0.934826,1.737 0.415531,0.4773 1.038188,0.83458 1.725706,0.82362 1.131855,-0.018 2.112376,-0.40485 2.861499,-1.04773 0.749118,-0.64289 1.273353,-1.50795 1.670383,-2.47707 0.794049,-1.93826 1.113771,-4.34512 1.444575,-6.69336 0.330814,-2.34825 0.673745,-4.63708 1.335635,-6.19549 0.330936,-0.77921 0.732116,-1.36033 1.199016,-1.72401 0.46692,-0.36368 1.00189,-0.55415 1.80473,-0.51201 1.26809,0.0665 2.01193,0.76341 2.69498,2.04183 0.68305,1.27841 1.16308,3.08404 1.64273,4.92195 0.47963,1.83791 0.95595,3.70847 1.79005,5.20815 0.8341,1.49968 2.19649,2.67068 4.08818,2.64134 0.72108,-0.0112 1.37908,-0.28644 1.86231,-0.72314 0.48323,-0.4367 0.80715,-1.00043 1.0562,-1.61732 0.49813,-1.23378 0.71697,-2.72652 0.9495,-4.20106 0.23252,-1.47453 0.47712,-2.92994 0.88742,-3.96624 0.41028,-1.0363 0.85639,-1.55521 1.64497,-1.67264 1.38393,-0.20609 2.37113,0.37021 3.40513,1.5682 1.03399,1.198 1.97498,2.99866 2.91908,4.87736 0.94407,1.87871 1.8952,3.8339 3.09576,5.39106 1.20054,1.55712 2.7386,2.7662 4.71929,2.81462 0.8285,0.0204 1.58567,-0.2482 2.05482,-0.79595 0.46916,-0.54778 0.61178,-1.25043 0.6125,-1.9611 4e-5,-0.0615 -0.006,-0.12566 -0.008,-0.18798 4.60986,7.03627 10.38553,13.85946 16.83988,20.03273 16.15964,15.45592 36.53776,26.84864 53.79209,26.84864 1.10495,0.0275 1.10495,-1.64421 0,-1.61676 -16.53553,0 -36.72012,-11.14207 -52.6738,-26.40097 -15.95367,-15.25892 -27.64062,-34.6103 -27.64062,-50.581144 5.7e-4,-0.455627 -0.37552,-0.821628 -0.83096,-0.808942 z m -0.70337,1.74998 c 0.1656,6.374408 2.02009,13.12849 5.13815,19.891049 0,0 2.47639,4.85617 3.36674,6.97056 0.64819,1.56676 1.10404,3.13309 1.10304,4.10285 -5.7e-4,0.48487 -0.10821,0.77407 -0.2241,0.90942 -0.11591,0.13535 -0.27802,0.24273 -0.78523,0.23032 -1.35713,-0.0332 -2.43067,-0.82242 -3.47963,-2.18296 -1.04898,-1.36054 -1.98379,-3.24376 -2.93207,-5.13081 -0.94827,-1.88705 -1.90574,-3.78033 -3.1381,-5.20817 -1.23237,-1.42784 -2.88132,-2.40837 -4.8689,-2.11239 -1.47047,0.21897 -2.39586,1.37878 -2.91003,2.67747 -0.51418,1.29869 -0.74665,2.83382 -0.97943,4.31003 -0.23279,1.4762 -0.46779,2.89671 -0.85129,3.84655 -0.19175,0.47494 -0.4166,0.82052 -0.64241,1.02459 -0.22579,0.20406 -0.43882,0.29916 -0.80443,0.30483 -1.27288,0.0198 -1.97093,-0.59272 -2.64754,-1.80924 -0.67661,-1.21653 -1.16192,-2.99459 -1.64103,-4.83051 -0.47911,-1.83591 -0.95537,-3.73117 -1.78103,-5.27646 -0.82566,-1.5453 -2.14258,-2.79378 -4.03511,-2.89312 -1.12722,-0.0592 -2.12081,0.25509 -2.88408,0.84959 -0.763276,0.59451 -1.292965,1.42539 -1.692399,2.36586 -0.79887,1.88094 -1.117605,4.25448 -1.448533,6.60363 -0.330941,2.34915 -0.672739,4.67346 -1.34184,6.30669 -0.334544,0.81662 -0.742107,1.44849 -1.224985,1.86288 -0.482878,0.41441 -1.034037,0.646 -1.834653,0.65879 -0.177935,0.003 -0.279158,-0.0376 -0.480398,-0.26872 -0.201242,-0.23113 -0.430795,-0.65961 -0.631124,-1.22046 -0.400651,-1.12169 -0.701015,-2.7474 -0.996356,-4.40995 -0.295345,-1.66254 -0.588249,-3.36178 -1.056197,-4.74921 -0.233976,-0.69371 -0.507093,-1.3158 -0.898134,-1.82844 -0.391043,-0.51264 -0.951322,-0.93212 -1.634256,-1.02007 -1.635325,-0.2106 -3.072743,0.68601 -4.30156,1.92667 -1.228821,1.24066 -2.342154,2.88704 -3.445767,4.54881 -1.10361,1.66177 -2.195052,3.33981 -3.285441,4.60639 -1.090394,1.26657 -2.16009,2.06489 -3.11948,2.1999 -0.607642,0.0856 -0.767073,-0.0209 -0.885713,-0.16033 -0.118645,-0.13948 -0.247323,-0.51625 -0.223547,-1.13917 0.04755,-1.24586 0.662885,-3.2445 1.493125,-5.25953 l 4.214626,-8.8024 c 2.759211,-6.085646 4.395761,-12.138319 4.535269,-17.890422 13.952007,3.103083 28.623423,3.188245 43.253843,-0.0045 z"
         id="path6413" />
      <g
         transform="translate(-4.3313057,17.484598)"
         id="g6425">
        <g
           style="fill:#ffffff;stroke:none;stroke-width:3;stroke-linecap:round;stroke-linejoin:round;stroke-miterlimit:4;stroke-dasharray:none"
           transform="translate(-2.7452816,-60.66091)"
           id="g6417">
          <path
             id="path6415"
             transform="matrix(0.26458333,0,0,0.26458333,3.8044174,63.83591)"
             d="m 383.61523,436.41797 -44.41796,0.16211 c -1.91367,0.009 -3.4603,1.56286 -3.46094,3.47656 V 571.625 L 288.33594,438.82422 c -0.49377,-1.38586 -1.80615,-2.3111 -3.27735,-2.31055 l -39.30859,5e-5 c -1.45793,0.002 -2.76013,0.91232 -3.26172,2.28125 L 201.4082,554.84375 c 3.82421,-10.38599 4.70748,-19.52143 4.70899,-19.91602 v -0.008 c 1e-5,-0.005 1e-5,-0.0104 0,-0.0156 v -0.0137 c 0.30191,-27.13601 -0.69721,-68.19862 0,-94.53906 v -0.008 l 0.008,-0.25195 c 0.0543,-1.98342 -1.55917,-3.61022 -3.54297,-3.57227 l -41.0293,-0.006 c -1.90538,5.4e-4 -3.45557,1.53418 -3.47656,3.43945 -0.3558,31.5518 0.68558,66.88349 0,94.55469 -0.003,0.0302 -0.16881,1.81875 -0.94531,3.31446 -0.55264,1.06446 -0.81957,1.43087 -1.16602,1.66796 -0.34643,0.23698 -1.12982,0.59766 -3.28515,0.59766 -2.15533,0 -2.93871,-0.36068 -3.28516,-0.59766 -0.34643,-0.23697 -0.61337,-0.6035 -1.16601,-1.66796 -0.7233,-1.39325 -0.9253,-3.10834 -0.9375,-3.26368 -0.14332,-1.80925 -1.65383,-3.20409 -3.46875,-3.20312 l -40.58594,-0.002 c -1.9084,5.8e-4 -3.459828,1.53893 -3.476564,3.44726 -0.0013,0.16403 -0.142619,12.91917 6.355464,25.97656 6.59807,13.25825 21.43915,26.94532 46.51368,26.94532 24.6341,0 39.38627,-13.17372 46.3125,-26.16993 L 191,579.22656 c -0.82888,2.26726 0.8477,4.66868 3.26172,4.67188 l 41.91406,0.002 c 1.45665,4.6e-4 2.75924,-0.90692 3.26367,-2.27344 0.9367,-2.54037 1.84908,-5.12177 2.75977,-7.69922 15.08897,-0.0227 30.22166,0.0302 45.39844,0 0.98072,2.55428 1.97091,5.08204 2.87304,7.64649 0.4885,1.39203 1.8021,2.32438 3.27735,2.32617 l 84.92773,-2e-5 c 1.9236,4.2e-4 3.48218,-1.56078 3.47852,-3.48437 -0.0227,-8.60508 -0.0265,-17.07423 0,-24.75782 4.89373,0.068 10.15426,-0.049 15.92968,-1.34375 0.24068,-0.004 0.48025,-0.0339 0.71485,-0.0879 25.43826,-6.20674 45.98041,-28.94074 45.82031,-58.21484 v -0.008 c -0.0151,-30.65972 -25.54161,-58.94015 -60.1543,-59.49805 l 0.26563,0.0898 c -0.11155,-0.0383 -0.22498,-0.0709 -0.33985,-0.0977 -0.24372,-0.004 -0.46418,-0.0715 -0.70898,-0.0723 h 0.14063 c -0.0689,-0.005 -0.13796,-0.007 -0.20704,-0.008 z m 88.13282,0.0957 c -1.45793,0.002 -2.76013,0.91232 -3.26172,2.28125 l -51.48242,140.43164 c -0.83092,2.26865 0.84764,4.67248 3.26367,4.67383 h 41.90625 c 1.45665,4.6e-4 2.75924,-0.90692 3.26367,-2.27344 0.93551,-2.53719 1.85414,-5.1198 2.76758,-7.69922 15.08901,-0.0227 30.22155,0.0302 45.39844,0 0.98071,2.55428 1.96895,5.08208 2.87109,7.64649 0.48874,1.3927 1.80333,2.32521 3.2793,2.32617 h 83.11914 c 1.92283,0.004 3.48371,-1.55373 3.48437,-3.47656 v -75.41406 l 20.35156,19.47461 v 55.93945 c -1.5e-4,1.67257 1.19032,3.10836 2.83399,3.41797 0.71909,0.13455 0.52793,0.063 0.62109,0.0664 0.093,0.003 0.17517,-10e-4 0.27344,0 0.19616,0.003 0.43614,0.008 0.71484,0.008 12.54027,-0.002 25.49232,-0.01 38.17969,-0.0154 1.92283,0.004 3.48372,-1.55373 3.48438,-3.47656 v -140.4336 c -6.6e-4,-1.91978 -1.55679,-3.4759 -3.47657,-3.47656 l -39.15429,-2e-5 c -1.91978,6.6e-4 -3.47591,1.55678 -3.47657,3.47656 v 17.65821 c -1.20215,-1.25545 -2.27244,-2.37254 -3.57226,-3.72852 -7.82941,-8.16748 -12.96828,-13.52998 -15.6582,-16.33594 -0.65587,-0.68375 -1.56231,-1.07031 -2.50977,-1.07031 l -40.57617,-4e-5 c -1.92054,-4.2e-4 -3.47786,1.55602 -3.47852,3.47656 V 569.32812 L 514.3418,438.82422 c -0.49377,-1.38586 -1.80615,-2.3111 -3.27735,-2.31055 z m -89.59571,47.25781 c 3.38714,0.32656 7.11521,0.58925 9.71485,1.93555 2.02375,1.04803 3.31958,2.0251 4.20898,3.39453 0.8894,1.36948 1.53516,3.35928 1.53516,6.92383 0,4.69232 -1.0044,6.30952 -2.65821,7.99609 -1.50907,1.53907 -4.11457,2.85423 -7.22656,3.60938 -1.89486,0.45978 -3.70596,0.43901 -5.57422,0.55273 z m -116.82422,27.46094 6.16211,17.09766 c -3.47797,-0.004 -7.63281,-0.004 -12.45898,0 2.37662,-6.45827 4.37572,-11.88531 6.29687,-17.09766 z m 225.99805,0 6.16211,17.09766 c -3.47796,-0.004 -7.63283,-0.004 -12.45898,0 2.3766,-6.45827 4.3757,-11.88531 6.29687,-17.09766 z"
             style="color:#000000;font-style:normal;font-variant:normal;font-weight:normal;font-stretch:normal;font-size:medium;line-height:normal;font-family:sans-serif;font-variant-ligatures:normal;font-variant-position:normal;font-variant-caps:normal;font-variant-numeric:normal;font-variant-alternates:normal;font-feature-settings:normal;text-indent:0;text-align:start;text-decoration:none;text-decoration-line:none;text-decoration-style:solid;text-decoration-color:#000000;letter-spacing:normal;word-spacing:normal;text-transform:none;writing-mode:lr-tb;direction:ltr;text-orientation:mixed;dominant-baseline:auto;baseline-shift:baseline;text-anchor:start;white-space:normal;shape-padding:0;clip-rule:nonzero;display:inline;overflow:visible;visibility:visible;opacity:1;isolation:auto;mix-blend-mode:normal;color-interpolation:sRGB;color-interpolation-filters:linearRGB;solid-color:#000000;solid-opacity:1;vector-effect:none;fill:#000000;fill-opacity:1;fill-rule:nonzero;stroke:none;stroke-width:11.33858299;stroke-linecap:round;stroke-linejoin:round;stroke-miterlimit:4;stroke-dasharray:none;stroke-dashoffset:0;stroke-opacity:1;color-rendering:auto;image-rendering:auto;shape-rendering:auto;text-rendering:auto;enable-background:accumulate" />
        </g>
        <path
           id="path6419"
           d="m 102.56044,119.56428 -11.752263,0.0429 v 37.13778 h 1.500169 v -35.6433 l 10.257774,-0.0372 c 7.95594,0.0284 13.71234,6.53234 13.71234,13.35113 0.0402,6.61812 -4.56139,11.65093 -10.27792,13.04571 -2.04523,0.4907 -4.17116,0.24932 -6.250787,0.29973 -0.03175,2.9601 -0.01323,6.02119 0,8.98394 h 1.500687 c -0.007,-2.59571 -0.0122,-5.24914 -5.3e-4,-7.47241 1.5856,0.0313 3.27729,0.0845 5.10046,-0.35295 h 0.003 0.003 c 6.34262,-1.54755 11.46472,-7.19249 11.42204,-14.50867 -0.003,-7.66085 -6.43818,-14.81431 -15.20682,-14.84561 h -0.005 z m 49.3267,0.0248 -1.50017,5.3e-4 v 37.15535 l 1.50017,-0.002 z m -108.084361,5.3e-4 c -0.09392,8.32826 0.18338,17.68476 0,25.05118 0,0 -0.03664,0.64696 -0.352949,1.25625 -0.316309,0.60925 -0.634256,1.09554 -1.994193,1.09554 -1.35994,0 -1.6784,-0.48629 -1.994712,-1.09554 -0.286004,-0.55092 -0.340453,-1.10749 -0.348814,-1.21388 h -1.503786 c 8.5e-5,0.003 0.110017,3.80907 3.847312,3.80907 3.738761,0 3.846793,-3.80959 3.846793,-3.80959 0.185377,-7.43788 -0.09399,-16.80242 0,-25.09303 z m 22.27771,0 -13.622424,37.15535 h 1.601454 L 67.681425,119.5896 Z m 8.858891,0 0.02066,0.0568 c -0.02019,-0.0568 13.087395,37.0057 13.242087,37.09851 H 89.7426 L 76.481922,119.5896 Z m 50.93695,0 -13.62243,37.15535 h 1.60146 l 13.6219,-37.15535 z m 8.8594,0 0.0202,0.0568 c -0.0202,-0.0568 13.08791,37.0057 13.2426,37.09851 H 149.539 L 136.27776,119.5896 Z m 24.33495,0 10.22625,10.69443 V 119.5896 h -1.50017 v 6.96185 c -0.80086,-0.83547 -1.61006,-1.67988 -2.53007,-2.63964 -2.07162,-2.16107 -3.43197,-3.58008 -4.14342,-4.32221 z m 17.71623,0 -0.12712,37.1538 1.495,0.002 V 119.59 Z m -122.111409,5.3e-4 -1.501717,0.0289 c 0,0 0.07937,17.96746 0,25.06358 0,0 -0.11326,11.57294 -11.731067,11.57294 -11.616301,0 -11.568297,-11.56943 -11.568287,-11.57243 h -1.500166 c -2.65e-4,0.0342 -0.02545,3.21901 1.584918,6.45491 1.619075,3.25339 5.176562,6.6182 11.483535,6.6182 6.306971,0 9.895676,-3.35589 11.557434,-6.60322 1.661755,-3.24734 1.673799,-6.4549 1.673799,-6.4549 l -5.29e-4,0.003 c 0.07997,-7.14923 -0.18588,-18.02161 0,-25.04084 z m 46.469519,8.97102 c -0.83729,1.9e-4 -1.395267,0.0724 -1.395267,0.0724 v 11.41946 c 0,0 8.930727,1.30319 8.930727,-5.63738 0,-5.20542 -5.02362,-5.85501 -7.53546,-5.85443 z m 0.1049,1.50896 c 1.12472,0.009 2.73973,0.18923 3.91501,0.79788 1.20712,0.62513 2.01538,1.42743 2.01538,3.54759 0,1.41346 -0.39581,2.17664 -0.96635,2.75848 -0.57053,0.58185 -1.41428,0.97748 -2.35231,1.2051 -0.92311,0.224 -1.87695,0.27164 -2.61173,0.26407 z m 57.82076,1.05626 v 25.61704 l 1.50017,0.002 v -22.10718 l 7.22591,6.91431 v 15.19287 c 0.0551,0.0103 1.50017,-0.002 1.50017,-0.002 V 140.9113 Z m -87.78844,0.25012 c 0,0 -3.444888,9.33382 -5.159375,14.00483 3.405158,-0.0214 10.21488,0 10.21488,0 z m 59.79584,0 c 0,0 -3.44488,9.33382 -5.15938,14.00483 3.40518,-0.0214 10.2154,0 10.2154,0 z m -59.810826,4.37751 2.933671,8.12715 c -1.392211,-0.004 -3.37869,-0.004 -5.927289,0 1.221605,-3.32087 2.119771,-5.7582 2.993618,-8.12715 z m 59.795836,0 2.93419,8.12715 c -1.39222,-0.004 -3.3792,-0.004 -5.92781,0 1.22161,-3.32087 2.11977,-5.7582 2.99362,-8.12715 z m -63.774923,16.84806 c -1.28283,-7.9e-4 -2.565781,1.9e-4 -3.848344,0.005 l -1.490347,4.13825 h 1.597834 c 0.32021,-0.86843 0.635746,-1.75397 0.946195,-2.63963 4.423074,-0.01 8.856467,0.0119 13.298929,0 0.338961,0.88146 0.673505,1.74548 0.988055,2.63963 h 1.584399 c -0.01241,-0.0387 -1.529543,-4.13832 -1.529622,-4.13825 -3.849666,0.0161 -7.698579,-0.002 -11.547099,-0.005 z m 59.795833,0 c -1.28284,-7.9e-4 -2.56577,1.9e-4 -3.84834,0.005 l -1.49035,4.13825 h 1.59784 c 0.32021,-0.86842 0.63574,-1.75396 0.94619,-2.63963 4.4231,-0.01 13.29945,0 13.29945,0 0,0 0.6735,1.74549 0.98805,2.63963 h 1.5844 c -0.0124,-0.0387 -1.52954,-4.13832 -1.52962,-4.13825 -3.84969,0.0161 -7.69909,-0.002 -11.54762,-0.005 z"
           style="color:#000000;font-style:normal;font-variant:normal;font-weight:normal;font-stretch:normal;font-size:medium;line-height:normal;font-family:sans-serif;font-variant-ligatures:normal;font-variant-position:normal;font-variant-caps:normal;font-variant-numeric:normal;font-variant-alternates:normal;font-feature-settings:normal;text-indent:0;text-align:start;text-decoration:none;text-decoration-line:none;text-decoration-style:solid;text-decoration-color:#000000;letter-spacing:normal;word-spacing:normal;text-transform:none;writing-mode:lr-tb;direction:ltr;text-orientation:mixed;dominant-baseline:auto;baseline-shift:baseline;text-anchor:start;white-space:normal;shape-padding:0;clip-rule:nonzero;display:inline;overflow:visible;visibility:visible;opacity:1;isolation:auto;mix-blend-mode:normal;color-interpolation:sRGB;color-interpolation-filters:linearRGB;solid-color:#000000;solid-opacity:1;vector-effect:none;fill:#ffffff;fill-opacity:1;fill-rule:nonzero;stroke:none;stroke-width:3;stroke-linecap:butt;stroke-linejoin:miter;stroke-miterlimit:4;stroke-dasharray:none;stroke-dashoffset:0;stroke-opacity:1;color-rendering:auto;image-rendering:auto;shape-rendering:auto;text-rendering:auto;enable-background:accumulate" />
        <path
           id="path6421"
           d="M 102.99912,116.44145 Z"
           style="fill:none;fill-rule:evenodd;stroke:#000000;stroke-width:0.26458332px;stroke-linecap:butt;stroke-linejoin:miter;stroke-opacity:1" />
        <path
           id="path6423"
           d="M 102.99912,153.56838 Z"
           style="fill:none;fill-rule:evenodd;stroke:#000000;stroke-width:0.26458332px;stroke-linecap:butt;stroke-linejoin:miter;stroke-opacity:1" />
      </g>
      <g
         style="fill:#000000"
         transform="translate(-2.2324327,-32.27918)"
         id="g6429" />
    </g>
  </g>
  <g
     style="display:none"
     id="layer8">
    <g
       transform="translate(3.5080333,-56.646797)"
       style="display:inline"
       id="layer1">
      <rect
         y="56.646797"
         x="-3.5080333"
         height="142.13109"
         width="213.80017"
         id="rect5408"
         style="opacity:1;fill:#ffffff;fill-opacity:1;stroke:none;stroke-width:1.60627067;stroke-linecap:round;stroke-linejoin:round;stroke-miterlimit:4;stroke-dasharray:none;stroke-dashoffset:0;stroke-opacity:1" />
    </g>
    <g
       transform="translate(3.5080333,-56.646797)"
       style="display:inline"
       id="layer3" />
    <g
       transform="translate(3.5080333,-56.646797)"
       style="display:inline"
       id="layer4">
      <path
         id="path6116"
         d="m 125.71985,83.497121 c -0.0528,0.0014 -0.10539,0.0081 -0.15693,0.01977 -15.00896,3.415159 -30.070607,3.315472 -44.339954,0.0024 -0.05259,-0.01248 -0.106296,-0.01969 -0.160319,-0.02145 -0.456555,-0.01336 -0.833516,0.353883 -0.832088,0.810632 0.0699,15.938067 -12.669249,35.305277 -29.182874,50.572107 -16.51362,15.26684 -36.788206,26.40776 -51.1293011,26.40775 -1.1049555,-0.0275 -1.1049555,1.64422 0,1.61676 15.1640931,0 35.5210841,-11.39026 52.2278371,-26.83564 6.825148,-6.30986 13.025423,-13.29968 17.972849,-20.50468 -0.116782,0.55244 -0.196212,1.08289 -0.215081,1.57723 -0.03188,0.8352 0.08453,1.63293 0.608542,2.24901 0.524026,0.61609 1.404943,0.84632 2.340457,0.71467 1.607028,-0.22615 2.919093,-1.35106 4.11979,-2.74577 1.200695,-1.3947 2.311004,-3.11753 3.407377,-4.76839 1.096369,-1.65087 2.182763,-3.23096 3.247056,-4.30551 1.064299,-1.07455 2.011585,-1.58025 2.94674,-1.45982 0.175534,0.0226 0.334418,0.10779 0.554913,0.39684 0.220494,0.28907 0.451146,0.76608 0.652572,1.3633 0.402857,1.19444 0.700617,2.85241 0.99636,4.51718 0.29574,1.66479 0.587532,3.33437 1.064664,4.67018 0.238565,0.66791 0.519298,1.25972 0.934826,1.737 0.415531,0.4773 1.038188,0.83458 1.725706,0.82362 1.131855,-0.018 2.112376,-0.40485 2.861499,-1.04773 0.749118,-0.64289 1.273353,-1.50795 1.670383,-2.47707 0.794049,-1.93826 1.113771,-4.34512 1.444575,-6.69336 0.330814,-2.34825 0.673745,-4.63708 1.335635,-6.19549 0.330936,-0.77921 0.732116,-1.36033 1.199016,-1.72401 0.46692,-0.36368 1.00189,-0.55415 1.80473,-0.51201 1.26809,0.0665 2.01193,0.76341 2.69498,2.04183 0.68305,1.27841 1.16308,3.08404 1.64273,4.92195 0.47963,1.83791 0.95595,3.70847 1.79005,5.20815 0.8341,1.49968 2.19649,2.67068 4.08818,2.64134 0.72108,-0.0112 1.37908,-0.28644 1.86231,-0.72314 0.48323,-0.4367 0.80715,-1.00043 1.0562,-1.61732 0.49813,-1.23378 0.71697,-2.72652 0.9495,-4.20106 0.23252,-1.47453 0.47712,-2.92994 0.88742,-3.96624 0.41028,-1.0363 0.85639,-1.55521 1.64497,-1.67264 1.38393,-0.20609 2.37113,0.37021 3.40513,1.5682 1.03399,1.198 1.97498,2.99866 2.91908,4.87736 0.94407,1.87871 1.8952,3.8339 3.09576,5.39106 1.20054,1.55712 2.7386,2.7662 4.71929,2.81462 0.8285,0.0204 1.58567,-0.2482 2.05482,-0.79595 0.46916,-0.54778 0.61178,-1.25043 0.6125,-1.9611 4e-5,-0.0615 -0.006,-0.12566 -0.008,-0.18798 4.60986,7.03627 10.38553,13.85946 16.83988,20.03273 16.15964,15.45592 36.53776,26.84864 53.79209,26.84864 1.10495,0.0275 1.10495,-1.64421 0,-1.61676 -16.53553,0 -36.72012,-11.14207 -52.6738,-26.40097 -15.95367,-15.25892 -27.64062,-34.6103 -27.64062,-50.581144 5.7e-4,-0.455627 -0.37552,-0.821628 -0.83096,-0.808942 z m -0.70337,1.74998 c 0.1656,6.374408 2.02009,13.12849 5.13815,19.891049 0,0 2.47639,4.85617 3.36674,6.97056 0.64819,1.56676 1.10404,3.13309 1.10304,4.10285 -5.7e-4,0.48487 -0.10821,0.77407 -0.2241,0.90942 -0.11591,0.13535 -0.27802,0.24273 -0.78523,0.23032 -1.35713,-0.0332 -2.43067,-0.82242 -3.47963,-2.18296 -1.04898,-1.36054 -1.98379,-3.24376 -2.93207,-5.13081 -0.94827,-1.88705 -1.90574,-3.78033 -3.1381,-5.20817 -1.23237,-1.42784 -2.88132,-2.40837 -4.8689,-2.11239 -1.47047,0.21897 -2.39586,1.37878 -2.91003,2.67747 -0.51418,1.29869 -0.74665,2.83382 -0.97943,4.31003 -0.23279,1.4762 -0.46779,2.89671 -0.85129,3.84655 -0.19175,0.47494 -0.4166,0.82052 -0.64241,1.02459 -0.22579,0.20406 -0.43882,0.29916 -0.80443,0.30483 -1.27288,0.0198 -1.97093,-0.59272 -2.64754,-1.80924 -0.67661,-1.21653 -1.16192,-2.99459 -1.64103,-4.83051 -0.47911,-1.83591 -0.95537,-3.73117 -1.78103,-5.27646 -0.82566,-1.5453 -2.14258,-2.79378 -4.03511,-2.89312 -1.12722,-0.0592 -2.12081,0.25509 -2.88408,0.84959 -0.763276,0.59451 -1.292965,1.42539 -1.692399,2.36586 -0.79887,1.88094 -1.117605,4.25448 -1.448533,6.60363 -0.330941,2.34915 -0.672739,4.67346 -1.34184,6.30669 -0.334544,0.81662 -0.742107,1.44849 -1.224985,1.86288 -0.482878,0.41441 -1.034037,0.646 -1.834653,0.65879 -0.177935,0.003 -0.279158,-0.0376 -0.480398,-0.26872 -0.201242,-0.23113 -0.430795,-0.65961 -0.631124,-1.22046 -0.400651,-1.12169 -0.701015,-2.7474 -0.996356,-4.40995 -0.295345,-1.66254 -0.588249,-3.36178 -1.056197,-4.74921 -0.233976,-0.69371 -0.507093,-1.3158 -0.898134,-1.82844 -0.391043,-0.51264 -0.951322,-0.93212 -1.634256,-1.02007 -1.635325,-0.2106 -3.072743,0.68601 -4.30156,1.92667 -1.228821,1.24066 -2.342154,2.88704 -3.445767,4.54881 -1.10361,1.66177 -2.195052,3.33981 -3.285441,4.60639 -1.090394,1.26657 -2.16009,2.06489 -3.11948,2.1999 -0.607642,0.0856 -0.767073,-0.0209 -0.885713,-0.16033 -0.118645,-0.13948 -0.247323,-0.51625 -0.223547,-1.13917 0.04755,-1.24586 0.662885,-3.2445 1.493125,-5.25953 l 4.214626,-8.8024 c 2.759211,-6.085646 4.395761,-12.138319 4.535269,-17.890422 13.952007,3.103083 28.623423,3.188245 43.253843,-0.0045 z"
         style="color:#000000;font-style:normal;font-variant:normal;font-weight:normal;font-stretch:normal;font-size:medium;line-height:normal;font-family:sans-serif;font-variant-ligatures:normal;font-variant-position:normal;font-variant-caps:normal;font-variant-numeric:normal;font-variant-alternates:normal;font-feature-settings:normal;text-indent:0;text-align:start;text-decoration:none;text-decoration-line:none;text-decoration-style:solid;text-decoration-color:#000000;letter-spacing:normal;word-spacing:normal;text-transform:none;writing-mode:lr-tb;direction:ltr;text-orientation:mixed;dominant-baseline:auto;baseline-shift:baseline;text-anchor:start;white-space:normal;shape-padding:0;clip-rule:nonzero;display:inline;overflow:visible;visibility:visible;opacity:1;isolation:auto;mix-blend-mode:normal;color-interpolation:sRGB;color-interpolation-filters:linearRGB;solid-color:#000000;solid-opacity:1;vector-effect:none;fill:#000000;fill-opacity:1;fill-rule:evenodd;stroke:none;stroke-width:1.61674047;stroke-linecap:round;stroke-linejoin:round;stroke-miterlimit:4;stroke-dasharray:none;stroke-dashoffset:0;stroke-opacity:1;color-rendering:auto;image-rendering:auto;shape-rendering:auto;text-rendering:auto;enable-background:accumulate" />
      <g
         id="g6324"
         transform="translate(-2.2324327,-32.27918)"
         style="fill:#000000" />
      <g
         id="g6483"
         transform="translate(-4.3313057,17.484598)"
         style="display:inline">
        <g
           id="g6475"
           transform="translate(-2.7452816,-60.66091)"
           style="fill:#ffffff;stroke:none;stroke-width:3;stroke-linecap:round;stroke-linejoin:round;stroke-miterlimit:4;stroke-dasharray:none">
          <path
             style="color:#000000;font-style:normal;font-variant:normal;font-weight:normal;font-stretch:normal;font-size:medium;line-height:normal;font-family:sans-serif;font-variant-ligatures:normal;font-variant-position:normal;font-variant-caps:normal;font-variant-numeric:normal;font-variant-alternates:normal;font-feature-settings:normal;text-indent:0;text-align:start;text-decoration:none;text-decoration-line:none;text-decoration-style:solid;text-decoration-color:#000000;letter-spacing:normal;word-spacing:normal;text-transform:none;writing-mode:lr-tb;direction:ltr;text-orientation:mixed;dominant-baseline:auto;baseline-shift:baseline;text-anchor:start;white-space:normal;shape-padding:0;clip-rule:nonzero;display:inline;overflow:visible;visibility:visible;opacity:1;isolation:auto;mix-blend-mode:normal;color-interpolation:sRGB;color-interpolation-filters:linearRGB;solid-color:#000000;solid-opacity:1;vector-effect:none;fill:#ffffff;fill-opacity:1;fill-rule:nonzero;stroke:none;stroke-width:11.33858299;stroke-linecap:round;stroke-linejoin:round;stroke-miterlimit:4;stroke-dasharray:none;stroke-dashoffset:0;stroke-opacity:1;color-rendering:auto;image-rendering:auto;shape-rendering:auto;text-rendering:auto;enable-background:accumulate"
             d="m 383.61523,436.41797 -44.41796,0.16211 c -1.91367,0.009 -3.4603,1.56286 -3.46094,3.47656 V 571.625 L 288.33594,438.82422 c -0.49377,-1.38586 -1.80615,-2.3111 -3.27735,-2.31055 l -39.30859,5e-5 c -1.45793,0.002 -2.76013,0.91232 -3.26172,2.28125 L 201.4082,554.84375 c 3.82421,-10.38599 4.70748,-19.52143 4.70899,-19.91602 v -0.008 c 1e-5,-0.005 1e-5,-0.0104 0,-0.0156 v -0.0137 c 0.30191,-27.13601 -0.69721,-68.19862 0,-94.53906 v -0.008 l 0.008,-0.25195 c 0.0543,-1.98342 -1.55917,-3.61022 -3.54297,-3.57227 l -41.0293,-0.006 c -1.90538,5.4e-4 -3.45557,1.53418 -3.47656,3.43945 -0.3558,31.5518 0.68558,66.88349 0,94.55469 -0.003,0.0302 -0.16881,1.81875 -0.94531,3.31446 -0.55264,1.06446 -0.81957,1.43087 -1.16602,1.66796 -0.34643,0.23698 -1.12982,0.59766 -3.28515,0.59766 -2.15533,0 -2.93871,-0.36068 -3.28516,-0.59766 -0.34643,-0.23697 -0.61337,-0.6035 -1.16601,-1.66796 -0.7233,-1.39325 -0.9253,-3.10834 -0.9375,-3.26368 -0.14332,-1.80925 -1.65383,-3.20409 -3.46875,-3.20312 l -40.58594,-0.002 c -1.9084,5.8e-4 -3.459828,1.53893 -3.476564,3.44726 -0.0013,0.16403 -0.142619,12.91917 6.355464,25.97656 6.59807,13.25825 21.43915,26.94532 46.51368,26.94532 24.6341,0 39.38627,-13.17372 46.3125,-26.16993 L 191,579.22656 c -0.82888,2.26726 0.8477,4.66868 3.26172,4.67188 l 41.91406,0.002 c 1.45665,4.6e-4 2.75924,-0.90692 3.26367,-2.27344 0.9367,-2.54037 1.84908,-5.12177 2.75977,-7.69922 15.08897,-0.0227 30.22166,0.0302 45.39844,0 0.98072,2.55428 1.97091,5.08204 2.87304,7.64649 0.4885,1.39203 1.8021,2.32438 3.27735,2.32617 l 84.92773,-2e-5 c 1.9236,4.2e-4 3.48218,-1.56078 3.47852,-3.48437 -0.0227,-8.60508 -0.0265,-17.07423 0,-24.75782 4.89373,0.068 10.15426,-0.049 15.92968,-1.34375 0.24068,-0.004 0.48025,-0.0339 0.71485,-0.0879 25.43826,-6.20674 45.98041,-28.94074 45.82031,-58.21484 v -0.008 c -0.0151,-30.65972 -25.54161,-58.94015 -60.1543,-59.49805 l 0.26563,0.0898 c -0.11155,-0.0383 -0.22498,-0.0709 -0.33985,-0.0977 -0.24372,-0.004 -0.46418,-0.0715 -0.70898,-0.0723 h 0.14063 c -0.0689,-0.005 -0.13796,-0.007 -0.20704,-0.008 z m 88.13282,0.0957 c -1.45793,0.002 -2.76013,0.91232 -3.26172,2.28125 l -51.48242,140.43164 c -0.83092,2.26865 0.84764,4.67248 3.26367,4.67383 h 41.90625 c 1.45665,4.6e-4 2.75924,-0.90692 3.26367,-2.27344 0.93551,-2.53719 1.85414,-5.1198 2.76758,-7.69922 15.08901,-0.0227 30.22155,0.0302 45.39844,0 0.98071,2.55428 1.96895,5.08208 2.87109,7.64649 0.48874,1.3927 1.80333,2.32521 3.2793,2.32617 h 83.11914 c 1.92283,0.004 3.48371,-1.55373 3.48437,-3.47656 v -75.41406 l 20.35156,19.47461 v 55.93945 c -1.5e-4,1.67257 1.19032,3.10836 2.83399,3.41797 0.71909,0.13455 0.52793,0.063 0.62109,0.0664 0.093,0.003 0.17517,-10e-4 0.27344,0 0.19616,0.003 0.43614,0.008 0.71484,0.008 12.54027,-0.002 25.49232,-0.01 38.17969,-0.0154 1.92283,0.004 3.48372,-1.55373 3.48438,-3.47656 v -140.4336 c -6.6e-4,-1.91978 -1.55679,-3.4759 -3.47657,-3.47656 l -39.15429,-2e-5 c -1.91978,6.6e-4 -3.47591,1.55678 -3.47657,3.47656 v 17.65821 c -1.20215,-1.25545 -2.27244,-2.37254 -3.57226,-3.72852 -7.82941,-8.16748 -12.96828,-13.52998 -15.6582,-16.33594 -0.65587,-0.68375 -1.56231,-1.07031 -2.50977,-1.07031 l -40.57617,-4e-5 c -1.92054,-4.2e-4 -3.47786,1.55602 -3.47852,3.47656 V 569.32812 L 514.3418,438.82422 c -0.49377,-1.38586 -1.80615,-2.3111 -3.27735,-2.31055 z m -89.59571,47.25781 c 3.38714,0.32656 7.11521,0.58925 9.71485,1.93555 2.02375,1.04803 3.31958,2.0251 4.20898,3.39453 0.8894,1.36948 1.53516,3.35928 1.53516,6.92383 0,4.69232 -1.0044,6.30952 -2.65821,7.99609 -1.50907,1.53907 -4.11457,2.85423 -7.22656,3.60938 -1.89486,0.45978 -3.70596,0.43901 -5.57422,0.55273 z m -116.82422,27.46094 6.16211,17.09766 c -3.47797,-0.004 -7.63281,-0.004 -12.45898,0 2.37662,-6.45827 4.37572,-11.88531 6.29687,-17.09766 z m 225.99805,0 6.16211,17.09766 c -3.47796,-0.004 -7.63283,-0.004 -12.45898,0 2.3766,-6.45827 4.3757,-11.88531 6.29687,-17.09766 z"
             transform="matrix(0.26458333,0,0,0.26458333,3.8044174,63.83591)"
             id="path6473" />
        </g>
        <path
           style="color:#000000;font-style:normal;font-variant:normal;font-weight:normal;font-stretch:normal;font-size:medium;line-height:normal;font-family:sans-serif;font-variant-ligatures:normal;font-variant-position:normal;font-variant-caps:normal;font-variant-numeric:normal;font-variant-alternates:normal;font-feature-settings:normal;text-indent:0;text-align:start;text-decoration:none;text-decoration-line:none;text-decoration-style:solid;text-decoration-color:#000000;letter-spacing:normal;word-spacing:normal;text-transform:none;writing-mode:lr-tb;direction:ltr;text-orientation:mixed;dominant-baseline:auto;baseline-shift:baseline;text-anchor:start;white-space:normal;shape-padding:0;clip-rule:nonzero;display:inline;overflow:visible;visibility:visible;opacity:1;isolation:auto;mix-blend-mode:normal;color-interpolation:sRGB;color-interpolation-filters:linearRGB;solid-color:#000000;solid-opacity:1;vector-effect:none;fill:#000000;fill-opacity:1;fill-rule:nonzero;stroke:none;stroke-width:3;stroke-linecap:butt;stroke-linejoin:miter;stroke-miterlimit:4;stroke-dasharray:none;stroke-dashoffset:0;stroke-opacity:1;color-rendering:auto;image-rendering:auto;shape-rendering:auto;text-rendering:auto;enable-background:accumulate"
           d="m 102.56044,119.56428 -11.752263,0.0429 v 37.13778 h 1.500169 v -35.6433 l 10.257774,-0.0372 c 7.95594,0.0284 13.71234,6.53234 13.71234,13.35113 0.0402,6.61812 -4.56139,11.65093 -10.27792,13.04571 -2.04523,0.4907 -4.17116,0.24932 -6.250787,0.29973 -0.03175,2.9601 -0.01323,6.02119 0,8.98394 h 1.500687 c -0.007,-2.59571 -0.0122,-5.24914 -5.3e-4,-7.47241 1.5856,0.0313 3.27729,0.0845 5.10046,-0.35295 h 0.003 0.003 c 6.34262,-1.54755 11.46472,-7.19249 11.42204,-14.50867 -0.003,-7.66085 -6.43818,-14.81431 -15.20682,-14.84561 h -0.005 z m 49.3267,0.0248 -1.50017,5.3e-4 v 37.15535 l 1.50017,-0.002 z m -108.084361,5.3e-4 c -0.09392,8.32826 0.18338,17.68476 0,25.05118 0,0 -0.03664,0.64696 -0.352949,1.25625 -0.316309,0.60925 -0.634256,1.09554 -1.994193,1.09554 -1.35994,0 -1.6784,-0.48629 -1.994712,-1.09554 -0.286004,-0.55092 -0.340453,-1.10749 -0.348814,-1.21388 h -1.503786 c 8.5e-5,0.003 0.110017,3.80907 3.847312,3.80907 3.738761,0 3.846793,-3.80959 3.846793,-3.80959 0.185377,-7.43788 -0.09399,-16.80242 0,-25.09303 z m 22.27771,0 -13.622424,37.15535 h 1.601454 L 67.681425,119.5896 Z m 8.858891,0 0.02066,0.0568 c -0.02019,-0.0568 13.087395,37.0057 13.242087,37.09851 H 89.7426 L 76.481922,119.5896 Z m 50.93695,0 -13.62243,37.15535 h 1.60146 l 13.6219,-37.15535 z m 8.8594,0 0.0202,0.0568 c -0.0202,-0.0568 13.08791,37.0057 13.2426,37.09851 H 149.539 L 136.27776,119.5896 Z m 24.33495,0 10.22625,10.69443 V 119.5896 h -1.50017 v 6.96185 c -0.80086,-0.83547 -1.61006,-1.67988 -2.53007,-2.63964 -2.07162,-2.16107 -3.43197,-3.58008 -4.14342,-4.32221 z m 17.71623,0 -0.12712,37.1538 1.495,0.002 V 119.59 Z m -122.111409,5.3e-4 -1.501717,0.0289 c 0,0 0.07937,17.96746 0,25.06358 0,0 -0.11326,11.57294 -11.731067,11.57294 -11.616301,0 -11.568297,-11.56943 -11.568287,-11.57243 h -1.500166 c -2.65e-4,0.0342 -0.02545,3.21901 1.584918,6.45491 1.619075,3.25339 5.176562,6.6182 11.483535,6.6182 6.306971,0 9.895676,-3.35589 11.557434,-6.60322 1.661755,-3.24734 1.673799,-6.4549 1.673799,-6.4549 l -5.29e-4,0.003 c 0.07997,-7.14923 -0.18588,-18.02161 0,-25.04084 z m 46.469519,8.97102 c -0.83729,1.9e-4 -1.395267,0.0724 -1.395267,0.0724 v 11.41946 c 0,0 8.930727,1.30319 8.930727,-5.63738 0,-5.20542 -5.02362,-5.85501 -7.53546,-5.85443 z m 0.1049,1.50896 c 1.12472,0.009 2.73973,0.18923 3.91501,0.79788 1.20712,0.62513 2.01538,1.42743 2.01538,3.54759 0,1.41346 -0.39581,2.17664 -0.96635,2.75848 -0.57053,0.58185 -1.41428,0.97748 -2.35231,1.2051 -0.92311,0.224 -1.87695,0.27164 -2.61173,0.26407 z m 57.82076,1.05626 v 25.61704 l 1.50017,0.002 v -22.10718 l 7.22591,6.91431 v 15.19287 c 0.0551,0.0103 1.50017,-0.002 1.50017,-0.002 V 140.9113 Z m -87.78844,0.25012 c 0,0 -3.444888,9.33382 -5.159375,14.00483 3.405158,-0.0214 10.21488,0 10.21488,0 z m 59.79584,0 c 0,0 -3.44488,9.33382 -5.15938,14.00483 3.40518,-0.0214 10.2154,0 10.2154,0 z m -59.810826,4.37751 2.933671,8.12715 c -1.392211,-0.004 -3.37869,-0.004 -5.927289,0 1.221605,-3.32087 2.119771,-5.7582 2.993618,-8.12715 z m 59.795836,0 2.93419,8.12715 c -1.39222,-0.004 -3.3792,-0.004 -5.92781,0 1.22161,-3.32087 2.11977,-5.7582 2.99362,-8.12715 z m -63.774923,16.84806 c -1.28283,-7.9e-4 -2.565781,1.9e-4 -3.848344,0.005 l -1.490347,4.13825 h 1.597834 c 0.32021,-0.86843 0.635746,-1.75397 0.946195,-2.63963 4.423074,-0.01 8.856467,0.0119 13.298929,0 0.338961,0.88146 0.673505,1.74548 0.988055,2.63963 h 1.584399 c -0.01241,-0.0387 -1.529543,-4.13832 -1.529622,-4.13825 -3.849666,0.0161 -7.698579,-0.002 -11.547099,-0.005 z m 59.795833,0 c -1.28284,-7.9e-4 -2.56577,1.9e-4 -3.84834,0.005 l -1.49035,4.13825 h 1.59784 c 0.32021,-0.86842 0.63574,-1.75396 0.94619,-2.63963 4.4231,-0.01 13.29945,0 13.29945,0 0,0 0.6735,1.74549 0.98805,2.63963 h 1.5844 c -0.0124,-0.0387 -1.52954,-4.13832 -1.52962,-4.13825 -3.84969,0.0161 -7.69909,-0.002 -11.54762,-0.005 z"
           id="path6477" />
        <path
           style="fill:none;fill-rule:evenodd;stroke:#000000;stroke-width:0.26458332px;stroke-linecap:butt;stroke-linejoin:miter;stroke-opacity:1"
           d="M 102.99912,116.44145 Z"
           id="path6479" />
        <path
           style="fill:none;fill-rule:evenodd;stroke:#000000;stroke-width:0.26458332px;stroke-linecap:butt;stroke-linejoin:miter;stroke-opacity:1"
           d="M 102.99912,153.56838 Z"
           id="path6481" />
      </g>
    </g>
  </g>
  <g
     transform="translate(14.731622,14.657146)"
     style="display:none"
     id="layer6">
    <g
       transform="translate(-10.881863,398.91115)"
       id="g6348"
       style="display:inline">
      <path
         id="path6088"
         d="m 65.021153,116.41459 -13.622355,37.15535 h 1.601451 l 13.621825,-37.15535 z m 8.859349,0 0.0202,0.0568 c -0.0202,-0.0568 13.087835,37.0057 13.242525,37.09851 h 1.540461 L 75.422553,116.41455 Z m -3.657629,11.78687 c 0,0 -3.444862,9.33382 -5.15935,14.00483 3.405159,-0.0214 10.21534,0 10.21534,0 z m -0.015,4.37751 2.934172,8.12715 c -1.392211,-0.004 -3.379179,-0.004 -5.927777,0 1.221604,-3.32087 2.119758,-5.7582 2.993605,-8.12715 z m -3.979069,16.84807 c -1.282831,-8e-4 -2.565755,2e-5 -3.848316,0.005 l -1.490344,4.13825 h 1.597831 c 0.32021,-0.86843 0.635737,-1.75398 0.946187,-2.63964 4.423073,-0.01 8.856909,0.0119 13.299372,0 0.33896,0.88146 0.673497,1.74549 0.988047,2.63964 h 1.584391 c -0.0124,-0.0387 -1.529534,-4.13832 -1.529614,-4.13825 -3.849666,0.0161 -7.699035,-0.002 -11.547554,-0.005 z"
         style="color:#000000;font-style:normal;font-variant:normal;font-weight:normal;font-stretch:normal;font-size:medium;line-height:normal;font-family:sans-serif;font-variant-ligatures:normal;font-variant-position:normal;font-variant-caps:normal;font-variant-numeric:normal;font-variant-alternates:normal;font-feature-settings:normal;text-indent:0;text-align:start;text-decoration:none;text-decoration-line:none;text-decoration-style:solid;text-decoration-color:#000000;letter-spacing:normal;word-spacing:normal;text-transform:none;writing-mode:lr-tb;direction:ltr;text-orientation:mixed;dominant-baseline:auto;baseline-shift:baseline;text-anchor:start;white-space:normal;shape-padding:0;clip-rule:nonzero;display:inline;overflow:visible;visibility:visible;opacity:1;isolation:auto;mix-blend-mode:normal;color-interpolation:sRGB;color-interpolation-filters:linearRGB;solid-color:#000000;solid-opacity:1;vector-effect:none;fill:#000000;fill-opacity:1;fill-rule:nonzero;stroke:none;stroke-width:3;stroke-linecap:butt;stroke-linejoin:miter;stroke-miterlimit:4;stroke-dasharray:none;stroke-dashoffset:0;stroke-opacity:1;color-rendering:auto;image-rendering:auto;shape-rendering:auto;text-rendering:auto;enable-background:accumulate" />
      <g
         id="g5989"
         transform="translate(-2.2324327,-32.27918)"
         style="fill:#000000">
        <path
           style="color:#000000;font-style:normal;font-variant:normal;font-weight:normal;font-stretch:normal;font-size:medium;line-height:normal;font-family:sans-serif;font-variant-ligatures:normal;font-variant-position:normal;font-variant-caps:normal;font-variant-numeric:normal;font-variant-alternates:normal;font-feature-settings:normal;text-indent:0;text-align:start;text-decoration:none;text-decoration-line:none;text-decoration-style:solid;text-decoration-color:#000000;letter-spacing:normal;word-spacing:normal;text-transform:none;writing-mode:lr-tb;direction:ltr;text-orientation:mixed;dominant-baseline:auto;baseline-shift:baseline;text-anchor:start;white-space:normal;shape-padding:0;clip-rule:nonzero;display:inline;overflow:visible;visibility:visible;opacity:1;isolation:auto;mix-blend-mode:normal;color-interpolation:sRGB;color-interpolation-filters:linearRGB;solid-color:#000000;solid-opacity:1;vector-effect:none;fill:#000000;fill-opacity:1;fill-rule:nonzero;stroke:none;stroke-width:11.33858299;stroke-linecap:butt;stroke-linejoin:miter;stroke-miterlimit:4;stroke-dasharray:none;stroke-dashoffset:0;stroke-opacity:1;color-rendering:auto;image-rendering:auto;shape-rendering:auto;text-rendering:auto;enable-background:accumulate"
           d="m 397.62695,561.89648 -44.41797,0.16211 v 140.36329 h 5.66993 V 567.70703 l 38.76953,-0.14062 c 30.06968,0.1074 51.82617,24.68913 51.82617,50.46093 0.15195,25.0134 -17.23989,44.03504 -38.8457,49.30664 -7.73,1.8546 -15.765,0.94232 -23.625,1.13282 -0.12,11.1878 -0.05,22.75728 0,33.95508 h 5.67187 c -0.028,-9.81056 -0.0464,-19.83928 -0.002,-28.24219 5.99282,0.1183 12.38662,0.31937 19.27734,-1.33399 h 0.0117 0.0117 c 23.97211,-5.849 43.33123,-27.18423 43.16992,-54.83593 -0.0113,-28.9544 -24.33329,-55.99108 -57.47461,-56.10938 h -0.0195 z m -5.34961,34.00391 c -3.16452,7e-4 -5.27343,0.27344 -5.27343,0.27344 v 43.16015 c 0,0 33.7539,4.92546 33.7539,-21.30664 0,-19.674 -18.98691,-22.12915 -28.48047,-22.12695 z m 0.39649,5.70313 c 4.25091,0.034 10.35487,0.71521 14.79687,3.01562 4.56235,2.3627 7.61719,5.395 7.61719,13.4082 0,5.34221 -1.49597,8.22668 -3.65234,10.42578 -2.15634,2.19909 -5.34532,3.6944 -8.89063,4.55469 -3.48892,0.84662 -7.09397,1.02666 -9.87109,0.99805 z"
           transform="matrix(0.26458333,0,0,0.26458333,-1.4717341,0)"
           id="path18189" />
      </g>
      <path
         style="color:#000000;font-style:normal;font-variant:normal;font-weight:normal;font-stretch:normal;font-size:medium;line-height:normal;font-family:sans-serif;font-variant-ligatures:normal;font-variant-position:normal;font-variant-caps:normal;font-variant-numeric:normal;font-variant-alternates:normal;font-feature-settings:normal;text-indent:0;text-align:start;text-decoration:none;text-decoration-line:none;text-decoration-style:solid;text-decoration-color:#000000;letter-spacing:normal;word-spacing:normal;text-transform:none;writing-mode:lr-tb;direction:ltr;text-orientation:mixed;dominant-baseline:auto;baseline-shift:baseline;text-anchor:start;white-space:normal;shape-padding:0;clip-rule:nonzero;display:inline;overflow:visible;visibility:visible;opacity:1;isolation:auto;mix-blend-mode:normal;color-interpolation:sRGB;color-interpolation-filters:linearRGB;solid-color:#000000;solid-opacity:1;vector-effect:none;fill:#000000;fill-opacity:1;fill-rule:nonzero;stroke:none;stroke-width:3;stroke-linecap:butt;stroke-linejoin:miter;stroke-miterlimit:4;stroke-dasharray:none;stroke-dashoffset:0;stroke-opacity:1;color-rendering:auto;image-rendering:auto;shape-rendering:auto;text-rendering:auto;enable-background:accumulate"
         d="m 126.40469,116.41459 -13.62243,37.15535 h 1.60146 l 13.6219,-37.15535 z m 8.8594,0 0.0202,0.0568 c -0.0202,-0.0568 13.08791,37.0057 13.2426,37.09851 h 1.54047 l -13.26121,-37.15535 z m -3.65765,11.78688 c 0,0 -3.44488,9.33382 -5.15938,14.00483 3.40518,-0.0214 10.2154,0 10.2154,0 z m -0.015,4.37751 2.93419,8.12715 c -1.39222,-0.004 -3.3792,-0.004 -5.92781,0 1.22161,-3.32087 2.11977,-5.7582 2.99362,-8.12715 z m -3.97909,16.84806 c -1.28284,-7.9e-4 -2.56577,2e-5 -3.84834,0.005 l -1.49035,4.13825 h 1.59784 c 0.32021,-0.86842 0.63574,-1.75397 0.94619,-2.63964 4.4231,-0.01 8.85696,0.0119 13.29945,0 0.33896,0.88146 0.6735,1.7455 0.98805,2.63964 h 1.5844 c -0.0124,-0.0387 -1.52954,-4.13832 -1.52962,-4.13825 -3.84969,0.0161 -7.69909,-0.002 -11.54762,-0.005 z"
         id="path18195" />
      <path
         style="color:#000000;font-style:normal;font-variant:normal;font-weight:normal;font-stretch:normal;font-size:medium;line-height:normal;font-family:sans-serif;font-variant-ligatures:normal;font-variant-position:normal;font-variant-caps:normal;font-variant-numeric:normal;font-variant-alternates:normal;font-feature-settings:normal;text-indent:0;text-align:start;text-decoration:none;text-decoration-line:none;text-decoration-style:solid;text-decoration-color:#000000;letter-spacing:normal;word-spacing:normal;text-transform:none;writing-mode:lr-tb;direction:ltr;text-orientation:mixed;dominant-baseline:auto;baseline-shift:baseline;text-anchor:start;white-space:normal;shape-padding:0;clip-rule:nonzero;display:inline;overflow:visible;visibility:visible;opacity:1;isolation:auto;mix-blend-mode:normal;color-interpolation:sRGB;color-interpolation-filters:linearRGB;solid-color:#000000;solid-opacity:1;vector-effect:none;fill:#000000;fill-opacity:1;fill-rule:nonzero;stroke:none;stroke-width:3;stroke-linecap:butt;stroke-linejoin:miter;stroke-miterlimit:4;stroke-dasharray:none;stroke-dashoffset:0;stroke-opacity:1;color-rendering:auto;image-rendering:auto;shape-rendering:auto;text-rendering:auto;enable-background:accumulate"
         d="m 42.743643,116.41459 c -0.09392,8.32826 0.18338,16.62643 0,23.99285 0,0 -0.03664,0.64696 -0.352949,1.25625 -0.316309,0.60925 -0.634256,1.09554 -1.994193,1.09554 -1.359938,0 -1.678403,-0.48629 -1.994713,-1.09554 -0.286006,-0.55092 -0.340452,-1.10749 -0.348813,-1.21388 h -1.503786 c 8.5e-5,0.003 0.110017,3.80907 3.847312,3.80907 3.738761,0 3.846793,-3.80958 3.846793,-3.80958 0.185377,-7.43788 -0.09399,-15.74409 0,-24.03471 z m 9.371005,0.0294 c 0,0 0.07937,16.90914 0,24.00526 0,0 -0.113261,11.57293 -11.731067,11.57293 -11.616301,0 -11.568298,-11.56942 -11.568287,-11.57242 h -1.500166 c -2.65e-4,0.0342 -0.02545,3.21901 1.584917,6.45491 1.619076,3.25339 5.176563,6.6182 11.483536,6.6182 6.306971,0 9.895676,-3.35589 11.557434,-6.60322 1.661755,-3.24734 1.673799,-6.4549 1.673799,-6.4549 l -5.29e-4,0.003 c 0.07997,-7.14923 -0.185881,-16.96328 0,-23.98251 l 0.0021,-0.0703 z"
         id="path18207" />
      <path
         id="path6162"
         style="color:#000000;font-style:normal;font-variant:normal;font-weight:normal;font-stretch:normal;font-size:medium;line-height:normal;font-family:sans-serif;font-variant-ligatures:normal;font-variant-position:normal;font-variant-caps:normal;font-variant-numeric:normal;font-variant-alternates:normal;font-feature-settings:normal;text-indent:0;text-align:start;text-decoration:none;text-decoration-line:none;text-decoration-style:solid;text-decoration-color:#000000;letter-spacing:normal;word-spacing:normal;text-transform:none;writing-mode:lr-tb;direction:ltr;text-orientation:mixed;dominant-baseline:auto;baseline-shift:baseline;text-anchor:start;white-space:normal;shape-padding:0;clip-rule:nonzero;display:inline;overflow:visible;visibility:visible;opacity:1;isolation:auto;mix-blend-mode:normal;color-interpolation:sRGB;color-interpolation-filters:linearRGB;solid-color:#000000;solid-opacity:1;vector-effect:none;fill:#000000;fill-opacity:1;fill-rule:nonzero;stroke:none;stroke-width:3;stroke-linecap:round;stroke-linejoin:miter;stroke-miterlimit:4;stroke-dasharray:none;stroke-dashoffset:0;stroke-opacity:0.99425288;color-rendering:auto;image-rendering:auto;shape-rendering:auto;text-rendering:auto;enable-background:accumulate"
         d="m 150.91533,116.4146 v 37.15536 l 1.50017,-0.002 v -37.15377 z m 8.68371,0 10.22625,10.69444 V 116.4146 h -1.50017 v 6.96185 c -0.80086,-0.83547 -1.61006,-1.67987 -2.53007,-2.63963 -2.07162,-2.16107 -3.43197,-3.58009 -4.14342,-4.32222 z m 17.71623,0 -0.12711,37.15381 1.495,0.002 v -37.15539 z m -17.71623,11.53676 v 25.61705 l 1.50017,0.002 V 131.4632 l 7.22591,6.9143 v 15.19288 c 0.0551,0.0103 1.50017,-0.002 1.50017,-0.002 v -15.83211 z" />
    </g>
  </g>
  <g
     transform="translate(3.5080333,-56.646797)"
     style="display:none"
     id="layer2">
    <path
       style="display:inline;fill:none;fill-rule:evenodd;stroke:#ffffff;stroke-width:1.48000002;stroke-linecap:round;stroke-linejoin:round;stroke-miterlimit:4;stroke-dasharray:none;stroke-opacity:1"
       d="m 11.981538,143.25513 c 27.009701,0 74.391889,-41.24773 74.26048,-71.210925 13.171044,3.058245 27.075892,3.150784 40.922982,0 0,29.953735 43.32848,71.210925 74.26048,71.210925"
       id="path6018" />
    <path
       id="path6020"
       d="m 82.014438,89.447306 c 0,0 -9.019243,15.430604 -3.368685,14.635464 4.698714,-0.6612 8.051941,-12.763512 12.758085,-12.157452 3.143456,0.404816 2.15159,12.411362 5.320602,12.360802 7.07611,-0.11289 2.427524,-17.442304 9.49481,-17.071366 5.78658,0.303718 3.50701,13.649196 9.30086,13.559296 3.97912,-0.0617 1.6254,-10.527585 5.76138,-11.143481 6.17271,-0.91919 6.96005,13.254691 13.07113,13.404151 4.89094,0.11962 -2.43363,-11.733724 -2.43363,-11.733724"
       style="display:inline;fill:none;fill-rule:evenodd;stroke:#ffffff;stroke-width:1.48000002;stroke-linecap:round;stroke-linejoin:miter;stroke-miterlimit:4;stroke-dasharray:none;stroke-opacity:1" />
  </g>
</svg>
