<?xml version="1.0" encoding="UTF-8"?>
<!DOCTYPE svg PUBLIC "-//W3C//DTD SVG 1.1//EN" "http://www.w3.org/Graphics/SVG/1.1/DTD/svg11.dtd">
<!-- Creator: CorelDRAW -->
<svg xmlns="http://www.w3.org/2000/svg" xml:space="preserve" width="297mm" height="210mm" style="shape-rendering:geometricPrecision; text-rendering:geometricPrecision; image-rendering:optimizeQuality; fill-rule:evenodd; clip-rule:evenodd"
viewBox="0 0 297 210"
 xmlns:xlink="http://www.w3.org/1999/xlink">
 <defs>
  <style type="text/css">
   <![CDATA[
    .str0 {stroke:#1F1A17;stroke-width:0.0762}
    .fil14 {fill:#0093DD}
    .fil22 {fill:#7BC4A0}
    .fil15 {fill:#84C225}
    .fil18 {fill:#974578}
    .fil10 {fill:#AAA9A9}
    .fil20 {fill:#B8DB7C}
    .fil13 {fill:#C2C1C1}
    .fil28 {fill:#DA251D}
    .fil1 {fill:#DB214C}
    .fil30 {fill:#DD137B}
    .fil12 {fill:#E3556A}
    .fil26 {fill:#E77817}
    .fil27 {fill:#EF9BA0}
    .fil11 {fill:#F7C5B4}
    .fil23 {fill:#F8C300}
    .fil17 {fill:#FFF500}
    .fil19 {fill:#FFFCC8}
    .fil21 {fill:white}
    .fil0 {fill:#043C77}
    .fil29 {fill:#B3DEF8}
    .fil16 {fill:#00923F;fill-rule:nonzero}
    .fil24 {fill:#B3DEF8;fill-opacity:0.501961}
    .fil8 {fill:url(#id0)}
    .fil6 {fill:url(#id1)}
    .fil7 {fill:url(#id2)}
    .fil5 {fill:url(#id3)}
    .fil2 {fill:url(#id4)}
    .fil4 {fill:url(#id5)}
    .fil9 {fill:url(#id6)}
    .fil3 {fill:url(#id7)}
    .fil25 {fill:url(#id8)}
   ]]>
  </style>
  <linearGradient id="id0" gradientUnits="userSpaceOnUse" x1="211.267" y1="98.6406" x2="221.806" y2="101.066">
   <stop offset="0" style="stop-color:#DA251D"/>
   <stop offset="1" style="stop-color:#FFF500"/>
  </linearGradient>
  <linearGradient id="id1" gradientUnits="userSpaceOnUse" xlink:href="#id0" x1="190.929" y1="93.961" x2="196.951" y2="95.3468">
  </linearGradient>
  <linearGradient id="id2" gradientUnits="userSpaceOnUse" xlink:href="#id0" x1="199.996" y1="96.0474" x2="208.277" y2="97.9528">
  </linearGradient>
  <linearGradient id="id3" gradientUnits="userSpaceOnUse" xlink:href="#id0" x1="212.825" y1="153.555" x2="225.214" y2="156.406">
  </linearGradient>
  <linearGradient id="id4" gradientUnits="userSpaceOnUse" xlink:href="#id0" x1="179.007" y1="145.774" x2="185.029" y2="147.159">
  </linearGradient>
  <linearGradient id="id5" gradientUnits="userSpaceOnUse" xlink:href="#id0" x1="199.346" y1="150.453" x2="209.884" y2="152.878">
  </linearGradient>
  <linearGradient id="id6" gradientUnits="userSpaceOnUse" xlink:href="#id0" x1="224.747" y1="101.742" x2="237.135" y2="104.593">
  </linearGradient>
  <linearGradient id="id7" gradientUnits="userSpaceOnUse" xlink:href="#id0" x1="188.075" y1="147.86" x2="196.355" y2="149.765">
  </linearGradient>
  <radialGradient id="id8" gradientUnits="userSpaceOnUse" cx="82.4111" cy="50.9427" r="24.8271" fx="82.4111" fy="50.9427">
   <stop offset="0" style="stop-color:#F8C300"/>
   <stop offset="1" style="stop-color:#8F5444"/>
  </radialGradient>
 </defs>
 <g id="Warstwa_x0020_1">
  <metadata id="CorelCorpID_0Corel-Layer"/>
  <g id="_233416776">
   <path id="_227358416" class="fil0 str0" d="M263.2 100.362c18.662,6.7606 32.7787,24.3631 32.7787,46.2124 0,26.6128 -20.5144,48.1949 -45.8107,48.1949 -12.0943,0 -20.5643,-17.1326 -31.281,-12.9939 -15.2547,5.8913 -22.6921,23.8931 -39.5638,23.8931 -16.0949,0 -24.8961,-14.3128 -38.4226,-21.9493 -7.3307,-4.1386 -15.3433,7.3035 -24.2478,7.3035 -15.7719,0 -23.9208,-15.2582 -37.9249,-21.1586 -22.5524,-9.5021 -43.9894,-22.1828 -43.9894,-48.1535 0,-2.4534 2.7204,-6.3341 0.5122,-7.2188 -18.9521,-7.5933 -34.2283,-24.2355 -34.2283,-46.6386 0,-26.6128 20.5144,-48.1949 45.8107,-48.1949 5.0751,0 10.5841,5.285 14.5203,2.4744 11.174,-7.9788 21.2045,-17.8014 35.5479,-17.8014 14.5789,0 22.1833,16.0232 35.9594,18.3385 11.5863,1.9472 19.4573,-13.5275 31.8167,-13.5275 22.9193,0 39.4842,18.2035 45.2803,40.8401 0.6155,2.4039 4.9536,-0.6493 7.5127,-0.6493 25.2963,0 45.8107,21.5821 45.8107,48.1949 0,0.9517 -0.9644,2.514 -0.0811,2.834z"/>
   <g>
    <path id="_149333120" class="fil1" d="M167.715 115.898c-0.9634,4.1873 -4.0945,7.5098 -8.521,9.64l4.1336 6.6043c1.0934,0.036 2.2158,0.1796 3.3469,0.4398 7.191,1.6547 12.0094,7.4 10.76,12.83 -1.2494,5.4299 -8.0943,8.4916 -15.2853,6.837 -7.191,-1.6546 -12.0095,-7.4 -10.7601,-12.83 0.7303,-3.1735 3.3725,-5.5376 6.8775,-6.6245l-3.5253 -5.6324c-4.9838,1.3193 -10.9301,1.4252 -17.0466,0.0178 -14.382,-3.3092 -24.2654,-13.7288 -22.0704,-23.2679 2.1949,-9.5391 15.6382,-14.5913 30.0202,-11.2821 6.1165,1.4074 11.4185,4.1014 15.3246,7.4662l5.6326 -3.5254c-2.6776,-2.5094 -4.0209,-5.7906 -3.2907,-8.9642 1.2494,-5.4299 8.0943,-8.4916 15.2853,-6.837 7.191,1.6546 12.0095,7.4 10.7601,12.83 -1.2494,5.4299 -8.0944,8.4916 -15.2854,6.8369 -1.1309,-0.2602 -2.203,-0.6216 -3.2022,-1.0671l-6.6047 4.1339c3.0501,3.8507 4.4144,8.2074 3.4509,12.3947z"/>
    <path id="_149333736" class="fil2" d="M184.333 146.999c-0.6071,2.6395 -2.2757,4.5095 -3.7262,4.1755 -1.4502,-0.3336 -2.1336,-2.7446 -1.5267,-5.3844 0.6074,-2.6393 2.2762,-4.5093 3.7262,-4.1753 1.4505,0.3335 2.1342,2.7445 1.5267,5.3842zm0.6233 0.1434c-0.6072,2.6391 -2.2759,4.5093 -3.7262,4.1755 -1.4507,-0.3337 -2.134,-2.745 -1.5267,-5.3842 0.6071,-2.6397 2.2757,-4.5096 3.7263,-4.1756 1.45,0.3336 2.1337,2.7445 1.5266,5.3843z"/>
    <path id="_149333400" class="fil3" d="M195.398 149.545c-0.8352,3.6293 -3.1292,6.2007 -5.1241,5.7418 -1.994,-0.4589 -2.9336,-3.7742 -2.0984,-7.4036 0.8348,-3.6287 3.1292,-6.2003 5.1235,-5.7415 1.9942,0.4589 2.9338,3.7741 2.099,7.4033zm0.8566 0.1973c-0.835,3.6293 -3.1297,6.2004 -5.1233,5.7418 -1.9942,-0.4591 -2.9342,-3.7745 -2.0993,-7.4037 0.8353,-3.6292 3.1297,-6.2007 5.1236,-5.7417 1.994,0.4592 2.9341,3.7742 2.099,7.4036z"/>
    <path id="_149333344" class="fil4" d="M208.666 152.598c-1.0629,4.6191 -3.9831,7.8912 -6.521,7.307 -2.5378,-0.5836 -3.734,-4.8037 -2.6707,-9.4224 1.0623,-4.6195 3.9826,-7.8915 6.5203,-7.3075 2.5383,0.5839 3.734,4.8033 2.6714,9.4229zm1.0903 0.2504c-1.0623,4.6194 -3.9828,7.8917 -6.5205,7.3076 -2.5383,-0.5839 -3.7345,-4.8035 -2.6718,-9.4226 1.0631,-4.6192 3.9832,-7.8915 6.521,-7.3073 2.5384,0.5841 3.7343,4.8032 2.6713,9.4223z"/>
    <path id="_149333512" class="fil5" d="M223.781 156.076c-1.2495,5.4297 -4.6819,9.2767 -7.6661,8.5903 -2.9833,-0.6866 -4.3894,-5.6471 -3.1399,-11.0765 1.2494,-5.4301 4.6819,-9.2769 7.6656,-8.5907 2.9833,0.6868 4.3896,5.6464 3.1404,11.0769zm1.2821 0.2948c-1.2497,5.4303 -4.6824,9.2769 -7.6659,8.5902 -2.9835,-0.6867 -4.39,-5.6466 -3.1403,-11.0765 1.2491,-5.4298 4.6823,-9.2769 7.6657,-8.5902 2.9837,0.6863 4.3897,5.6467 3.1405,11.0765z"/>
    <path id="_149333960" class="fil6" d="M196.255 95.1865c-0.6073,2.6395 -2.2762,4.5096 -3.7261,4.1755 -1.4506,-0.3335 -2.1339,-2.7446 -1.5266,-5.3841 0.6072,-2.6394 2.2757,-4.5093 3.7258,-4.1754 1.4504,0.3331 2.1343,2.7446 1.5269,5.384zm0.6232 0.1433c-0.6075,2.6397 -2.2762,4.5094 -3.7262,4.1757 -1.4504,-0.3338 -2.1339,-2.7448 -1.5267,-5.384 0.6074,-2.6397 2.2762,-4.5098 3.7263,-4.1758 1.4499,0.3339 2.1339,2.7448 1.5266,5.3841z"/>
    <path id="_149331496" class="fil7" d="M207.32 97.7324c-0.8352,3.6294 -3.1298,6.2002 -5.1238,5.742 -1.9939,-0.4592 -2.9339,-3.7745 -2.0988,-7.4042 0.8349,-3.6293 3.1295,-6.2001 5.1231,-5.7415 1.9943,0.4594 2.9349,3.7742 2.0995,7.4037zm0.8568 0.1968c-0.8351,3.6294 -3.1296,6.2007 -5.1241,5.7416 -1.994,-0.4582 -2.9341,-3.7738 -2.0986,-7.4028 0.835,-3.6296 3.1295,-6.2006 5.1237,-5.7419 1.9939,0.459 2.9336,3.7742 2.099,7.4031z"/>
    <path id="_149331160" class="fil8" d="M220.588 100.785c-1.0629,4.6197 -3.983,7.8914 -6.5209,7.308 -2.5378,-0.5843 -3.7343,-4.804 -2.6714,-9.423 1.0631,-4.6188 3.9832,-7.8912 6.5207,-7.307 2.5381,0.5839 3.7345,4.8032 2.6716,9.422zm1.0902 0.2513c-1.063,4.6191 -3.9827,7.8916 -6.5205,7.3071 -2.5383,-0.5838 -3.7341,-4.8033 -2.6717,-9.4224 1.0627,-4.6189 3.9829,-7.8911 6.5208,-7.3074 2.5383,0.5838 3.7342,4.8037 2.6714,9.4227z"/>
    <path id="_149330880" class="fil9" d="M235.703 104.263c-1.2496,5.4298 -4.6821,9.2768 -7.6657,8.5901 -2.9839,-0.6863 -4.3898,-5.6463 -3.1407,-11.0768 1.2495,-5.4295 4.6823,-9.2765 7.6655,-8.5897 2.9836,0.6864 4.39,5.6468 3.1409,11.0764zm1.2816 0.2946c-1.2494,5.43 -4.6824,9.277 -7.6658,8.5905 -2.9836,-0.6867 -4.3896,-5.6471 -3.1397,-11.0763 1.2491,-5.43 4.6817,-9.2764 7.6647,-8.5907 2.9838,0.687 4.3903,5.6472 3.1408,11.0765z"/>
    <path id="_227378632" class="fil10" d="M149.744 94.4528c-1.3969,-0.4902 -2.8159,-0.8987 -4.2367,-1.2257 -5.7599,-1.3253 -12.1317,-1.4419 -17.8156,0.3168 -0.2071,0.0641 -0.4141,0.1312 -0.6209,0.2012 -0.2044,1.0838 -0.2265,2.1887 -0.0666,3.2806 3.2564,1.5102 6.886,2.419 10.4341,2.8582 3.9213,0.4854 8.0479,0.4342 11.937,-0.3337 0.1146,-0.3322 0.2117,-0.6703 0.2905,-1.0128 0.311,-1.3515 0.3339,-2.7342 0.0782,-4.0846z"/>
    <ellipse id="_149330992" class="fil11" transform="matrix(0.597503 0.137483 -0.137483 0.597503 113.412 103.403)" rx="1.785" ry="4.76"/>
    <ellipse id="_149332056" class="fil11" transform="matrix(0.43934 0.10109 -0.10109 0.43934 108.679 102.314)" rx="1.785" ry="4.76"/>
    <ellipse id="_149331664" class="fil11" transform="matrix(0.251052 0.0577659 -0.0577659 0.251052 104.564 101.367)" rx="1.785" ry="4.76"/>
    <path id="_149330768" class="fil12" d="M115.954 102.97c0.5369,0.0948 0.8661,0.657 0.7438,1.1884l0 0c-0.1223,0.5313 -0.6641,0.8932 -1.1884,0.7438l-1.2915 -0.3681c0.1003,-0.2744 0.1888,-0.5721 0.2611,-0.8863 0.0722,-0.314 0.1228,-0.6206 0.1525,-0.9113l1.3225 0.2335zm-2.7102 1.2866l-3.9656 -1.1301c0.0709,-0.1965 0.1337,-0.409 0.1852,-0.6327 0.0515,-0.2237 0.0879,-0.4424 0.11,-0.6501l4.0608 0.7168c-0.0304,0.2751 -0.0791,0.5638 -0.1471,0.8591 -0.0679,0.2954 -0.1503,0.5763 -0.2433,0.837zm-4.6809 -1.3339l-3.6727 -1.0466c0.0474,-0.1245 0.0889,-0.2613 0.1223,-0.4065 0.0334,-0.145 0.0559,-0.2863 0.0677,-0.419l3.7607 0.6638c-0.0224,0.1962 -0.0575,0.4018 -0.1058,0.6118 -0.0484,0.2101 -0.1066,0.4102 -0.1722,0.5965zm-4.0498 -1.1541l-7.5441 -2.1498 0 0 7.7251 1.3637c-0.0123,0.1267 -0.0342,0.261 -0.0659,0.3987 -0.0317,0.1378 -0.0707,0.268 -0.1151,0.3874z"/>
    <path id="_147575928" class="fil13" d="M128.434 93.3262c-0.2486,0.0692 -0.4963,0.1416 -0.7424,0.2177 -0.2071,0.0641 -0.4141,0.1312 -0.6209,0.2012 -0.2044,1.0838 -0.2265,2.1887 -0.0666,3.2806 1.6598,0.7698 3.4167,1.3831 5.2102,1.8578l-0.7403 -1.2383 0.6515 -1.3207 -1.749 -1.5789 -1.9425 -1.4194z"/>
    <ellipse id="_226889840" class="fil14" transform="matrix(0.597503 0.137483 -0.137483 0.597503 128.438 94.2195)" rx="0.425" ry="0.3825"/>
    <ellipse id="_226875112" class="fil15" transform="matrix(0.883886 0.203378 -0.203378 0.883886 128.886 96.0642)" rx="1.5725" ry="1.2962"/>
    <path id="_226848176" class="fil16" d="M129.154 94.8957c0.389,0.0895 0.7117,0.301 0.9187,0.5703 0.208,0.2706 0.2995,0.5999 0.2251,0.9232 -0.0744,0.3233 -0.3006,0.5795 -0.6059,0.7321 -0.3039,0.1518 -0.6867,0.2009 -1.0757,0.1114 -0.3889,-0.0895 -0.7117,-0.301 -0.9187,-0.5703 -0.208,-0.2707 -0.2994,-0.6 -0.2251,-0.9233 0.0744,-0.3233 0.3007,-0.5795 0.606,-0.7319 0.3039,-0.1518 0.6866,-0.201 1.0756,-0.1115zm0.8819 0.5987c-0.2006,-0.261 -0.5141,-0.4661 -0.8924,-0.5531 -0.3783,-0.0871 -0.7499,-0.0396 -1.0444,0.1075 -0.2931,0.1463 -0.51,0.3916 -0.5811,0.7008 -0.0712,0.3092 0.0167,0.6247 0.2164,0.8844 0.2006,0.261 0.514,0.4662 0.8923,0.5532 0.3784,0.0871 0.7499,0.0396 1.0444,-0.1075 0.2931,-0.1464 0.51,-0.3917 0.5812,-0.7009 0.0711,-0.3092 -0.0168,-0.6247 -0.2164,-0.8844z"/>
    <ellipse id="_435499856" class="fil17" transform="matrix(0.597503 0.137483 -0.137483 0.597503 131.118 96.6942)" rx="0.5312" ry="0.6162"/>
    <ellipse id="_149351600" class="fil18" transform="matrix(0.597503 0.137483 -0.137483 0.597503 130.614 97.7815)" rx="0.595" ry="0.5312"/>
    <path id="_149755424" class="fil16" d="M127.84 96.6914l0.1181 -0.074c-0.0173,-0.0195 -0.0337,-0.0397 -0.0494,-0.0601 -0.1663,-0.2164 -0.242,-0.4786 -0.1902,-0.7377l-0.1587 -0.0365 0.0105 -0.0455 0.1587 0.0365c0.0664,-0.2558 0.2492,-0.4585 0.4935,-0.5805 0.023,-0.0115 0.0466,-0.0223 0.0707,-0.0323l-0.074 -0.1183 0.0395 -0.0247 0.0786 0.1255c0.222,-0.0823 0.4824,-0.1036 0.7473,-0.0471l0.0291 -0.1266 0.0455 0.0104 -0.0291 0.1267c0.2629,0.0649 0.4876,0.198 0.6513,0.3691l0.1255 -0.0786 0.0248 0.0395 -0.1182 0.074c0.0173,0.0195 0.0339,0.0395 0.0496,0.0599 0.1664,0.2165 0.2423,0.4787 0.1902,0.7378l0.1587 0.0365 -0.0105 0.0455 -0.1587 -0.0365c-0.0666,0.2557 -0.2493,0.4584 -0.4935,0.5804 -0.023,0.0115 -0.0468,0.0222 -0.0709,0.0322l0.074 0.1181 -0.0396 0.0248 -0.0785 -0.1256c-0.2219,0.0824 -0.4822,0.1038 -0.747,0.0473l-0.0291 0.1266 -0.0456 -0.0105 0.0292 -0.1266c-0.2629,-0.0649 -0.4879,-0.1977 -0.6516,-0.3687l-0.1255 0.0785 -0.0247 -0.0395zm0.1581 -0.099l0.309 -0.1934c-0.1171,-0.1367 -0.1736,-0.3075 -0.1427,-0.4768l-0.4003 -0.0921c-0.0487,0.245 0.0235,0.4933 0.1815,0.6988 0.0166,0.0217 0.034,0.0429 0.0525,0.0635zm0.3489 -0.2184l0.3577 -0.2238c-0.0234,-0.0332 -0.0352,-0.0719 -0.0323,-0.1111l-0.4625 -0.1064c-0.0278,0.1566 0.0263,0.3148 0.1371,0.4413zm0.3972 -0.2485l0.0816 -0.0511 -0.1071 -0.0246c-0.0002,0.0265 0.0089,0.0529 0.0255,0.0757zm0.1771 -0.1109l0.0725 -0.0454c-0.0159,-0.0123 -0.0344,-0.0227 -0.0552,-0.03l-0.0173 0.0754zm0.114 -0.0714l0.3568 -0.2233c-0.0916,-0.0912 -0.2143,-0.1627 -0.357,-0.1997l-0.086 0.3734c0.0333,0.0109 0.0625,0.0283 0.0862,0.0496zm0.3973 -0.2486l0.3084 -0.193c-0.157,-0.1613 -0.3711,-0.287 -0.6214,-0.3489l-0.0741 0.322c0.1555,0.0401 0.2885,0.1189 0.3871,0.2199zm0.3409 -0.1584l-0.3089 0.1934c0.117,0.1367 0.1739,0.3074 0.1428,0.4767l0.4004 0.0921c0.0488,-0.2449 -0.0236,-0.4933 -0.1815,-0.6989 -0.0166,-0.0216 -0.0343,-0.0427 -0.0528,-0.0633zm-0.3488 0.2184l-0.3577 0.2239c0.0234,0.0332 0.0354,0.0716 0.0324,0.1109l0.4625 0.1064c0.0279,-0.1567 -0.0265,-0.3147 -0.1372,-0.4412zm-0.3974 0.2486l-0.0812 0.0509 0.107 0.0247c0.0004,-0.0267 -0.0091,-0.0527 -0.0258,-0.0756zm-0.1768 0.1107l-0.0728 0.0456c0.0161,0.0121 0.0349,0.0221 0.0556,0.0294l0.0172 -0.075zm-0.1143 0.0716l-0.3567 0.2233c0.0917,0.0912 0.2146,0.1623 0.3573,0.1993l0.0859 -0.3735c-0.0332,-0.011 -0.0627,-0.0279 -0.0865,-0.0491zm-0.3972 0.2486l-0.3085 0.1931c0.1569,0.1612 0.3714,0.2865 0.6217,0.3484l0.0741 -0.322c-0.1553,-0.04 -0.2887,-0.1187 -0.3873,-0.2195zm0.0235 -1.25l0.193 0.3083c0.1328,-0.0477 0.2874,-0.0601 0.4445,-0.0282l0.0741 -0.322c-0.2523,-0.0537 -0.4999,-0.0346 -0.7116,0.0419zm1.6348 1.1599l-0.4003 -0.0922c-0.043,0.1543 -0.1547,0.2767 -0.303,0.3508 -0.011,0.0055 -0.0224,0.0106 -0.0339,0.0156l0.1933 0.3088c0.0256,-0.0104 0.0508,-0.0216 0.0752,-0.0338 0.2319,-0.1159 0.4054,-0.3076 0.4687,-0.5492zm-0.5883 0.6001l-0.193 -0.3085c-0.1327,0.0477 -0.2868,0.0604 -0.4441,0.0285l-0.0741 0.322c0.2522,0.0536 0.4997,0.0344 0.7112,-0.042zm-1.6345 -1.1595l0.4004 0.0921c0.0428,-0.1544 0.1545,-0.2768 0.3029,-0.3509 0.011,-0.0055 0.0222,-0.0108 0.0337,-0.0158l-0.1933 -0.3087c-0.0255,0.0105 -0.0506,0.0218 -0.075,0.0339 -0.2319,0.1159 -0.4055,0.3077 -0.4687,0.5494zm1.3144 0.3503c-0.0146,0.0365 -0.0422,0.0659 -0.0777,0.0855l0.2239 0.3579c0.013,-0.0055 0.0258,-0.0112 0.0382,-0.0174 0.1359,-0.0678 0.2384,-0.1794 0.2781,-0.3195l-0.4625 -0.1065zm-0.1215 0.1036c-0.0305,0.0087 -0.0645,0.0112 -0.0991,0.0065l-0.086 0.3735c0.1446,0.0291 0.2861,0.0187 0.4084,-0.0233l-0.2233 -0.3567zm-0.2845 -0.2449c0.0144,-0.0367 0.0422,-0.066 0.0777,-0.0856l-0.2242 -0.3581c-0.0129,0.0054 -0.0255,0.0113 -0.0379,0.0175 -0.136,0.0681 -0.2384,0.1795 -0.2781,0.3198l0.4625 0.1064zm0.1213 -0.1038c0.0306,-0.0088 0.0647,-0.0114 0.0994,-0.0067l0.0859 -0.3734c-0.1445,-0.0291 -0.2862,-0.0187 -0.4086,0.0232l0.2233 0.3569zm0.026 0.0415l0.0456 0.0728 0.0173 -0.0753c-0.0218,-0.0027 -0.043,-0.0016 -0.0629,0.0025zm0.1054 0.1684l0.0509 0.0812c0.0248,-0.0132 0.0447,-0.0327 0.0561,-0.0566l-0.107 -0.0246zm0.0057 0.0971l-0.0453 -0.0724 -0.0172 0.0749c0.0217,0.0025 0.0429,0.0015 0.0625,-0.0025zm-0.1051 -0.1679l-0.0509 -0.0815c-0.0249,0.0133 -0.0447,0.0327 -0.0561,0.0568l0.107 0.0247z"/>
    <path id="_226828184" class="fil19" d="M147.069 90.1238l0 0.0002c0.4868,0.2009 0.7206,0.7633 0.5198,1.2501l-2.8733 6.9629 -0.7565 1.8331c-0.6933,0.0264 -1.3877,0.0338 -2.0808,0.0233l0.9669 -2.3433 2.9737 -7.2064c0.2008,-0.4868 0.7635,-0.7205 1.2502,-0.5199z"/>
    <path id="_147575200" class="fil20" d="M133.466 93.3243c0.508,0.6155 2.2491,1.2864 1.6134,1.7686 -0.9342,0.7087 -2.7184,-1.2084 -3.502,-0.3359 -0.0421,0.0469 -0.0699,0.0925 -0.086,0.1373 -0.2254,0.6272 1.947,1.064 2.0193,1.945 0.0534,0.6514 -0.7263,1.414 -1.2636,2.053 1.7146,0.452 3.4622,0.7776 5.1907,0.9916 1.452,0.1797 2.932,0.2857 4.4178,0.3091 0.0806,-0.6534 -0.8753,-1.939 -0.7471,-2.7569 0.0019,-0.0124 0.0045,-0.0244 0.0078,-0.036 0.1097,-0.3813 0.9507,-0.322 1.0161,-0.7306 0.0853,-0.5328 -0.8097,-0.956 -0.6652,-1.4759 0.1213,-0.4362 1.0937,-0.1378 1.2337,-0.5684 0.1084,-0.3332 -0.9663,-0.2954 -0.8457,-0.6243 0.3293,-0.8982 1.3681,-1.3621 1.8722,-2.1752 0.508,-0.8194 1.1363,-1.6995 1.1277,-2.6636 -0.0034,-0.3847 -0.8467,-0.1432 -1.1506,0.0926 -0.8727,0.6774 -1.1071,2.2407 -2.1824,2.4945 -0.7367,0.1738 0.6519,-1.398 0.7279,-2.1511 0.0556,-0.5517 -0.0297,-1.1722 -0.3468,-1.6269 -0.1547,-0.2219 -0.5918,-0.1916 -0.8109,-0.033 -0.3075,0.2225 -0.3971,0.6517 -0.5336,1.0059 -0.236,0.6126 -0.61,1.2267 -0.5794,1.8826 0.0224,0.4811 0.767,0.77 0.7255,1.2499 -0.0482,0.5572 -0.4996,1.0532 -0.9527,1.381 -0.2453,0.1774 -0.6792,0.1632 -0.9076,-0.0354 -0.2459,-0.2138 0.0949,-0.8999 -0.2268,-0.9507 -0.5944,-0.0937 -1.0934,0.7621 -1.6846,0.6495 -0.3196,-0.0609 0.1489,-0.6726 0.3842,-0.8972 0.1982,-0.1892 0.6809,0.0267 0.791,-0.2243 0.331,-0.7552 0.3514,-1.6204 0.379,-2.4445 0.0203,-0.6061 0.1115,-1.3076 -0.237,-1.8039 -0.2487,-0.3542 -0.8341,-0.4142 -1.2575,-0.3243 -0.2889,0.0614 -0.4308,0.4295 -0.5366,0.7054 -0.125,0.326 -0.1058,0.691 -0.1322,1.0391 -0.0261,0.3448 -0.1483,0.7143 -0.0247,1.0371 0.1232,0.3217 0.793,0.4174 0.7095,0.7515 -0.097,0.3877 -0.658,0.6899 -1.0446,0.5886 -0.6163,-0.1616 -0.9565,-0.8426 -1.4519,-1.2432 -0.4292,-0.3471 -0.7702,-0.9614 -1.3209,-0.9991 -0.3106,-0.0213 0.1692,0.6085 0.1627,0.9198 -0.0071,0.3387 -0.4703,0.7886 -0.2025,0.9962 0.5425,0.4204 1.4722,-0.0056 2.0178,0.4108 0.2872,0.2191 0.2132,0.8477 -0.0618,1.082 -0.4346,0.3703 -1.1324,0.193 -1.6677,0.3917 -0.0684,0.0254 -0.0204,0.1613 0.0261,0.2176z"/>
    <circle id="_436000920" class="fil21" transform="matrix(0.597503 0.137483 -0.137483 0.597503 137.323 94.5243)" r="1.2537"/>
    <circle id="_435498960" class="fil22" transform="matrix(0.347006 0.0798446 -0.0798446 0.347006 137.221 94.5744)" r="1.2537"/>
    <circle id="_147593232" class="fil21" transform="matrix(0.597503 0.137483 -0.137483 0.597503 139.242 94.9659)" r="1.2537"/>
    <circle id="_147559520" class="fil22" transform="matrix(0.347006 0.0798446 -0.0798446 0.347006 139.14 95.016)" r="1.2537"/>
    <path id="_149796640" class="fil17" d="M115.557 109.031c16.8007,-5.1258 33.3738,-6.3323 49.7475,-4.0967 0.5912,0.8915 1.093,1.8044 1.4986,2.731 -17.013,-3.4325 -33.6164,-1.4488 -49.8561,5.3456 -0.66,-1.3015 -1.1302,-2.6353 -1.39,-3.9799z"/>
    <path id="_231660320" class="fil14" d="M118.838 116c16.5056,-5.4931 32.7906,-7.1876 48.8815,-5.5346 0.1685,0.7733 0.2677,1.5506 0.2937,2.3278 -15.6297,-2.1698 -30.9142,0.224 -45.8896,6.7053 -1.251,-1.1036 -2.3526,-2.2768 -3.2856,-3.4985z"/>
    <path id="_435497672" class="fil14" d="M125.473 122.049c14.1606,-4.4602 28.1593,-6.1328 42.0129,-5.3018 -0.2267,0.7335 -0.5216,1.4382 -0.8804,2.1122 -12.2903,-0.7828 -24.3678,1.2502 -36.2502,5.8628 -1.7493,-0.7877 -3.3837,-1.6857 -4.8823,-2.6732z"/>
    <path id="_233405352" class="fil23" d="M176.076 138.737c1.3384,2.0635 1.8826,4.3966 1.3585,6.6743 -0.524,2.2776 -2.0331,4.1381 -4.1388,5.409 -0.039,-1.6593 0.2051,-3.8448 0.7448,-6.1901 0.5396,-2.3452 1.2752,-4.4178 2.0355,-5.8932z"/>
    <path id="_227368216" class="fil23" d="M187.998 86.9251c1.3384,2.0636 1.8827,4.3964 1.3586,6.6741 -0.5241,2.2776 -2.0332,4.1383 -4.1389,5.4093 -0.039,-1.6594 0.2052,-3.8451 0.7448,-6.1904 0.5396,-2.3452 1.2752,-4.4175 2.0355,-5.893z"/>
    <path id="_149332336" class="fil24" d="M140.937 84.9577c6.5462,1.5063 10.7216,7.6487 9.3257,13.7169 -0.1117,0.4852 -0.2561,0.9548 -0.4295,1.4082 -3.7057,0.7737 -8.0094,0.9618 -12.4711,0.4097 -4.1441,-0.5135 -7.8743,-1.5971 -10.912,-3.0497 -0.2444,-1.3712 -0.2239,-2.7992 0.1036,-4.223 1.3963,-6.0685 7.8372,-9.7684 14.3833,-8.2621z"/>
   </g>
   <path id="_149310160" class="fil17" d="M74.126 56.2671c23.2253,-12.65 43.5471,-20.1784 45.3808,-16.8116 1.8337,3.3666 -15.514,16.3555 -38.7393,29.0055 -23.2251,12.6498 -43.547,20.1782 -45.3807,16.8115 -1.8337,-3.3667 15.5141,-16.3555 38.7392,-29.0054zm0.6136 1.1268c18.9333,-10.3123 35.4996,-16.4494 36.9944,-13.7049 1.4949,2.7445 -12.6469,13.333 -31.5802,23.6452 -18.9331,10.3122 -35.4994,16.4493 -36.9942,13.7048 -1.4949,-2.7445 12.6469,-13.333 31.58,-23.6451z"/>
   <path id="_436000416" class="fil25" d="M65.573 40.5641c12.0379,-6.5571 27.1174,-2.1117 33.6737,9.9261 0.7208,1.3229 1.3083,2.6828 1.7668,4.0633 -5.5012,3.8843 -12.7389,8.3575 -20.8595,12.7811 -8.1211,4.4221 -15.8047,8.0761 -22.0521,10.5919 -0.9112,-1.135 -1.7349,-2.3658 -2.4554,-3.6885 -6.5567,-12.0381 -2.1113,-27.1176 9.9265,-33.6739zm35.9009 15.5461c2.8128,10.7765 -1.9331,22.4871 -12.1533,28.0537 -10.2205,5.5668 -22.6325,3.2012 -30.1606,-5.0068 6.5022,-2.8599 13.8938,-6.4948 21.6074,-10.6962 7.7136,-4.2009 14.7768,-8.4394 20.7065,-12.3507z"/>
   <polygon id="_435530768" class="fil26 str0" points="145.777,38.2231 147.722,41.0736 151.034,42.0427 148.924,44.7736 149.026,48.2231 145.777,47.0602 142.528,48.2231 142.63,44.7736 140.52,42.0427 143.832,41.0736 "/>
   <polygon id="_147567864" class="fil21 str0" points="186.833,57.5953 187.287,60.5402 189.506,62.5288 186.845,63.8701 185.64,66.5953 183.542,64.4793 180.578,64.175 181.942,61.5258 181.315,58.6126 184.256,59.0912 "/>
   <polygon id="_147579064" class="fil17 str0" points="85.7512,120.668 88.2893,121.678 90.8916,120.848 90.7158,123.574 92.3094,125.792 89.6626,126.467 88.0452,128.668 86.5852,126.36 83.992,125.501 85.7365,123.4 "/>
   <polygon id="_149332840" class="fil27 str0" points="218.473,131.098 220.913,129.433 221.742,126.598 224.08,128.404 227.032,128.317 226.037,131.098 227.032,133.879 224.08,133.792 221.742,135.598 220.913,132.763 "/>
   <polygon id="_231666480" class="fil17 str0" points="264.321,145.479 266.75,147.704 270.039,147.882 268.673,150.879 269.52,154.062 266.247,153.69 263.482,155.479 262.824,152.251 260.269,150.174 263.135,148.551 "/>
   <polygon id="_147580856" class="fil28 str0" points="61.7181,92.236 63.6386,94.5816 66.6114,95.1761 64.974,97.7276 65.3272,100.739 62.3947,99.9696 59.6403,101.236 59.4653,98.2095 57.4098,95.9812 60.2341,94.8795 "/>
   <polygon id="_149745232" class="fil29 str0" points="21.7659,50.003 23.7069,51.2486 25.9974,50.9799 25.4125,53.2107 26.3759,55.3061 24.0735,55.4393 22.3783,57.003 21.5403,54.8544 19.5292,53.7255 21.3136,52.2644 "/>
   <polygon id="_143410032" class="fil17 str0" points="104.454,16.041 106.733,18.459 110.029,18.8817 108.434,21.7968 109.051,25.0621 105.785,24.4456 102.87,26.041 102.447,22.745 100.029,20.4656 103.033,19.045 "/>
   <polygon id="_143413168" class="fil28 str0" points="133.135,152.434 135.908,154.428 139.316,154.21 138.276,157.463 139.536,160.636 136.121,160.653 133.492,162.832 132.421,159.589 129.536,157.762 132.289,155.742 "/>
   <polygon id="_147580968" class="fil21 str0" points="202.998,113.407 204.663,115.847 207.498,116.677 205.692,119.014 205.779,121.967 202.998,120.971 200.217,121.967 200.304,119.014 198.498,116.677 201.333,115.847 "/>
   <polygon id="_233416664" class="fil30 str0" points="178.317,167.753 178.901,170.397 181.03,172.071 178.696,173.443 177.763,175.985 175.736,174.189 173.03,174.087 174.112,171.604 173.373,168.999 176.068,169.261 "/>
   <polygon id="_226890120" class="fil17 str0" points="217.554,74.0183 220.167,74.4991 222.491,73.2131 222.841,75.8464 224.783,77.6598 222.387,78.8064 221.262,81.2131 219.431,79.2883 216.794,78.9624 218.059,76.6263 "/>
   <polygon id="_226877072" class="fil28 str0" points="115.123,58.7967 116.485,60.792 118.803,61.4704 117.326,63.382 117.397,65.7967 115.123,64.9827 112.849,65.7967 112.92,63.382 111.443,61.4704 113.761,60.792 "/>
   <polygon id="_435501760" class="fil29 str0" points="105.45,158.68 106.288,160.829 108.299,161.958 106.514,163.419 106.061,165.68 104.12,164.434 101.83,164.702 102.415,162.472 101.452,160.376 103.755,160.243 "/>
   <polygon id="_435502152" class="fil29 str0" points="257.733,122.849 259.587,121.49 260.158,119.263 262.024,120.607 264.318,120.462 263.616,122.651 264.463,124.788 262.164,124.798 260.393,126.263 259.674,124.08 "/>
   <polygon id="_147569544" class="fil21 str0" points="40.5689,34.3552 44.5975,34.0516 47.5188,31.2609 49.0524,34.9985 52.6093,36.9145 49.5285,39.528 48.8055,43.5028 45.3678,41.3805 41.3641,41.9211 42.3203,37.9959 "/>
  </g>
 </g>
</svg>
