<?xml version="1.0" standalone="no"?>
<!DOCTYPE svg PUBLIC "-//W3C//DTD SVG 20010904//EN"
 "http://www.w3.org/TR/2001/REC-SVG-20010904/DTD/svg10.dtd">
<svg version="1.0" xmlns="http://www.w3.org/2000/svg"
 width="1920.000000pt" height="1080.000000pt" viewBox="0 0 1920.000000 1080.000000"
 preserveAspectRatio="xMidYMid meet">

<g transform="translate(0.000000,1080.000000) scale(0.100000,-0.100000)"
fill="#000000" stroke="none">
<path d="M0 5400 l0 -5400 9600 0 9600 0 0 5400 0 5400 -9600 0 -9600 0 0
-5400z m12153 3441 c230 -59 447 -207 582 -395 60 -84 128 -230 157 -336 20
-74 23 -107 22 -255 0 -141 -4 -183 -22 -247 -51 -186 -136 -333 -267 -463
-86 -86 -166 -146 -172 -130 -2 6 -183 281 -403 613 l-399 602 -50 0 c-39 0
-53 -4 -61 -19 -6 -13 -10 -157 -10 -401 0 -244 4 -388 10 -401 8 -14 21 -19
55 -19 24 0 47 6 52 13 4 6 10 144 13 305 l5 294 199 -294 c110 -161 273 -394
364 -516 129 -175 162 -226 151 -233 -37 -24 -184 -73 -269 -91 -77 -16 -120
-19 -230 -15 -270 10 -475 96 -666 279 -141 135 -232 291 -281 478 -35 132
-37 352 -4 484 42 174 141 347 270 477 155 154 363 259 574 289 93 13 292 3
380 -19z m-6823 -6 c0 -9 -4 -57 -9 -108 -11 -103 -14 -137 -76 -862 -25 -286
-48 -553 -51 -592 l-6 -73 -67 -19 c-265 -78 -563 -161 -578 -161 -19 1 -631
175 -637 181 -2 2 -13 119 -25 259 -12 140 -26 305 -31 365 -10 117 -24 273
-40 458 -5 61 -16 193 -25 292 -8 99 -17 201 -20 228 l-6 47 786 0 c700 0 785
-2 785 -15z m-2387 -12 c2 -5 -4 -96 -14 -203 -25 -277 -43 -471 -90 -1000
-23 -256 -43 -467 -45 -469 -1 -1 -153 -45 -336 -97 l-333 -94 -200 56 c-346
97 -466 132 -469 135 -2 2 -22 213 -45 469 -47 529 -65 723 -90 1000 -10 107
-16 198 -14 203 2 4 370 7 818 7 448 0 816 -3 818 -7z m6208 -78 c61 -24 145
-78 223 -143 l50 -41 43 40 c24 21 77 61 118 88 250 163 415 98 442 -174 5
-52 -6 -180 -24 -265 -4 -24 -1 -28 24 -34 100 -25 250 -104 322 -170 108
-100 105 -206 -9 -309 -76 -69 -172 -119 -326 -172 -8 -2 -8 -23 2 -77 26
-144 14 -290 -29 -374 -23 -45 -81 -92 -123 -100 -53 -10 -121 3 -193 36 -70
33 -172 103 -210 144 -31 32 -41 33 -72 0 -44 -47 -183 -134 -254 -159 -38
-13 -90 -25 -114 -25 -60 0 -127 34 -156 79 -53 80 -69 228 -40 378 8 43 15
81 15 85 0 3 -24 14 -52 24 -214 69 -377 209 -378 322 0 107 164 243 373 308
31 10 57 22 57 28 0 6 -7 47 -15 91 -33 186 -7 332 73 409 54 51 145 55 253
11z m5853 -179 c252 -151 346 -212 359 -234 15 -27 17 -68 17 -454 0 -395 -1
-425 -19 -453 -13 -22 -112 -86 -351 -229 -184 -109 -348 -203 -366 -209 -22
-7 -42 -6 -64 1 -37 13 -260 150 -260 160 0 4 28 20 61 35 l61 29 85 -52 c47
-28 89 -49 93 -48 4 2 147 86 318 188 l312 185 0 390 0 390 -311 189 c-171
104 -317 189 -324 189 -7 0 -153 -85 -324 -189 l-311 -189 0 -390 0 -390 98
-57 c108 -64 156 -74 192 -38 19 19 20 33 20 399 0 209 3 386 6 395 5 12 21
16 65 16 l59 0 0 -407 c0 -374 -2 -411 -19 -448 -10 -22 -27 -48 -37 -57 -52
-46 -151 -61 -226 -34 -69 25 -250 140 -269 171 -18 28 -19 59 -19 453 0 386
2 427 18 454 12 22 104 82 351 230 183 110 343 204 355 209 46 19 92 -2 430
-205z m-7424 84 c67 -11 159 -37 173 -49 6 -6 -57 -238 -68 -249 -2 -2 -34 8
-72 23 -95 39 -229 46 -295 17 -54 -23 -82 -61 -82 -108 0 -74 47 -112 233
-190 184 -77 263 -139 313 -251 19 -40 23 -66 23 -153 0 -99 -2 -109 -32 -171
-95 -193 -340 -284 -626 -234 -79 14 -173 43 -206 64 -11 7 -8 29 15 127 15
66 29 121 31 123 2 3 20 -4 41 -13 59 -29 161 -56 237 -62 137 -12 232 38 242
129 10 87 -41 136 -213 203 -168 65 -278 148 -332 249 -24 45 -27 60 -27 155
0 100 1 108 34 168 19 34 54 80 78 103 54 50 169 106 243 118 77 12 213 13
290 1z m-840 -477 c-1 -496 -6 -564 -53 -667 -32 -69 -101 -144 -164 -178 -55
-30 -178 -58 -253 -58 -60 0 -188 19 -211 30 -14 8 -14 20 1 127 13 92 20 117
31 114 8 -2 57 -6 109 -8 118 -5 152 10 190 83 l25 48 3 483 3 483 159 0 160
0 0 -457z m10055 332 c121 -34 236 -133 295 -252 36 -73 63 -204 58 -285 l-3
-53 -453 0 -452 0 0 -60 c0 -171 100 -338 240 -404 49 -23 67 -26 170 -26 97
0 124 4 175 24 86 34 162 114 200 209 30 77 51 98 90 88 21 -5 22 -9 14 -48
-48 -216 -234 -358 -468 -358 -228 0 -403 117 -470 313 -24 70 -51 210 -51
266 0 79 39 243 76 318 108 223 345 333 579 268z m530 -19 c21 -9 51 -38 80
-78 128 -176 281 -377 287 -378 3 0 77 95 163 211 87 116 167 219 178 230 24
22 79 35 100 22 12 -6 -17 -50 -137 -209 -83 -110 -170 -224 -193 -253 -24
-30 -43 -62 -43 -72 0 -10 97 -146 215 -304 226 -300 228 -305 148 -292 -46 8
-70 31 -148 142 -35 50 -112 157 -173 238 l-110 149 -134 -179 c-74 -98 -156
-209 -183 -247 -27 -37 -62 -77 -79 -87 -37 -23 -101 -26 -93 -5 3 7 98 138
212 290 113 153 208 283 210 289 2 7 -86 129 -196 271 -142 185 -196 262 -187
268 19 12 45 10 83 -6z m-2350 -285 c27 -12 58 -29 69 -39 25 -23 56 -90 56
-124 0 -27 -2 -28 -55 -28 -50 0 -56 2 -70 30 -22 42 -59 63 -128 71 -91 11
-177 -4 -204 -36 -38 -44 -25 -89 30 -109 11 -3 76 -15 145 -26 154 -24 190
-34 232 -63 47 -32 69 -65 76 -117 24 -176 -153 -292 -393 -259 -106 14 -179
51 -219 111 -29 43 -49 111 -38 130 3 4 29 8 59 8 l54 0 11 -38 c5 -22 19 -47
29 -56 28 -26 106 -46 175 -46 112 0 178 32 191 91 16 71 -21 92 -211 118
-221 31 -284 76 -284 204 0 93 46 154 142 189 77 27 261 21 333 -11z m-10578
-1961 c41 -24 60 -58 39 -66 -9 -4 -25 5 -39 22 -31 36 -87 39 -120 6 -32 -32
-31 -106 2 -133 34 -27 86 -25 117 6 42 42 72 30 37 -14 -26 -31 -88 -50 -132
-40 -102 23 -120 163 -29 219 42 25 84 25 125 0z m237 -1 c28 -22 35 -59 12
-59 -7 0 -21 11 -30 25 -26 40 -86 29 -86 -16 0 -11 19 -23 60 -38 64 -24 85
-48 76 -87 -8 -30 -36 -45 -86 -46 -47 0 -90 24 -90 52 0 27 36 26 43 -1 5
-17 12 -20 49 -17 38 3 43 6 43 28 0 21 -8 27 -47 40 -26 8 -57 23 -68 32 -20
18 -26 53 -12 74 25 37 96 44 136 13z m205 6 c32 -16 47 -43 32 -58 -7 -7 -19
-2 -35 16 -28 30 -53 34 -82 13 -27 -21 -9 -46 48 -65 60 -21 78 -37 78 -72 0
-42 -39 -64 -108 -60 -24 1 -72 42 -72 61 0 18 35 11 48 -11 10 -15 21 -19 50
-17 32 3 37 6 37 28 0 21 -8 28 -53 44 -65 23 -90 55 -73 92 19 42 79 56 130
29z m1700 -48 c-12 -29 -30 -74 -41 -102 -23 -57 -35 -75 -53 -75 -12 0 -24
27 -86 183 l-19 48 21 -3 c17 -2 29 -21 55 -88 l32 -85 20 45 c10 25 24 62 31
82 12 36 38 61 53 52 4 -3 -2 -28 -13 -57z m411 48 c21 -11 30 -23 30 -40 0
-30 -26 -34 -35 -5 -8 25 -46 35 -75 20 -27 -14 -22 -42 9 -55 87 -36 106 -50
109 -82 5 -46 -35 -68 -114 -64 -24 1 -64 36 -64 56 0 22 33 18 48 -6 10 -15
21 -19 50 -17 32 3 37 6 37 28 0 20 -9 28 -50 43 -61 22 -85 43 -85 72 0 53
80 81 140 50z m281 -21 c31 -29 38 -54 16 -54 -8 0 -24 11 -36 24 -47 50 -112
41 -137 -20 -18 -42 -5 -97 26 -114 34 -18 79 -11 106 16 16 15 35 24 48 22
20 -3 18 -6 -15 -41 -58 -58 -153 -53 -195 11 -18 28 -21 101 -4 132 34 64
136 77 191 24z m204 22 c60 -25 71 -72 27 -115 l-28 -28 23 -34 c28 -40 29
-49 5 -49 -9 0 -28 18 -42 40 -34 55 -67 56 -72 3 -2 -27 -8 -39 -20 -41 -16
-3 -18 7 -18 111 0 83 4 117 13 120 24 10 78 7 112 -7z m320 0 c58 -25 72 -80
30 -121 -15 -15 -36 -25 -54 -25 -49 0 -61 -9 -61 -46 0 -27 -4 -34 -20 -34
-19 0 -20 7 -20 114 0 101 2 115 18 119 35 9 73 7 107 -7z m260 -6 c0 -10 -12
-16 -37 -18 l-38 -3 0 -100 c0 -92 -1 -99 -20 -99 -19 0 -20 7 -20 99 l0 100
-37 3 c-39 3 -56 23 -26 31 10 3 54 4 98 4 64 -2 80 -5 80 -17z m804 9 c55
-19 69 -82 27 -124 l-24 -24 24 -35 c29 -42 29 -46 4 -46 -12 0 -30 16 -46 40
-19 28 -34 40 -50 40 -21 0 -24 -5 -24 -40 0 -33 -3 -40 -20 -40 -19 0 -20 7
-20 114 0 101 2 115 18 119 33 9 79 7 111 -4z m246 -9 c0 -11 -14 -16 -53 -18
l-53 -3 3 -32 c3 -31 5 -32 51 -35 63 -4 58 -26 -6 -30 -46 -3 -47 -4 -47 -37
l0 -34 55 -3 c84 -5 72 -23 -17 -26 l-78 -3 0 115 c0 130 -4 125 90 123 42 -2
55 -6 55 -17z m439 10 c32 -12 66 -45 66 -65 0 -21 -27 -19 -40 4 -16 31 -73
45 -108 27 -34 -18 -42 -33 -42 -84 0 -76 78 -108 139 -56 17 14 38 24 48 22
14 -3 13 -8 -12 -36 -76 -84 -215 -39 -215 69 0 94 79 152 164 119z m289 4
c14 -15 -8 -34 -39 -34 l-33 0 -3 -97 c-3 -84 -6 -98 -20 -101 -16 -3 -18 7
-18 97 l0 100 -37 3 c-39 3 -56 23 -26 31 27 7 169 8 176 1z m326 -9 c32 -16
47 -43 32 -58 -7 -7 -19 -2 -35 16 -28 30 -53 34 -82 13 -27 -21 -9 -46 48
-65 60 -21 78 -37 78 -72 0 -42 -39 -64 -108 -60 -24 1 -72 42 -72 61 0 18 35
11 48 -11 10 -15 21 -19 50 -17 32 3 37 6 37 28 0 21 -8 28 -53 44 -65 23 -90
55 -73 92 19 42 79 56 130 29z m6356 -5 c0 -11 -14 -16 -53 -18 l-53 -3 3 -32
c3 -31 5 -32 51 -35 63 -4 58 -26 -6 -30 -46 -3 -47 -4 -47 -37 l0 -34 55 -3
c84 -5 72 -23 -17 -26 l-78 -3 0 115 c0 130 -4 125 90 123 42 -2 55 -6 55 -17z
m117 -37 l21 -36 21 29 c29 39 54 64 66 64 18 0 11 -19 -26 -70 l-36 -50 36
-50 c39 -55 44 -70 21 -70 -9 0 -29 20 -46 44 l-32 44 -31 -41 c-18 -23 -42
-43 -55 -45 -21 -3 -20 1 20 57 l42 60 -36 53 c-26 37 -33 54 -25 59 15 10 32
-4 60 -48z m309 37 c11 -6 24 -23 29 -36 21 -54 -15 -104 -75 -104 -41 0 -53
-10 -57 -45 -2 -19 -10 -31 -20 -33 -16 -3 -18 7 -18 112 0 100 2 115 18 120
24 7 99 -2 123 -14z m198 9 c55 -19 69 -82 27 -124 l-24 -24 24 -35 c29 -42
29 -46 4 -46 -12 0 -30 16 -46 40 -19 28 -34 40 -50 40 -21 0 -24 -5 -24 -40
0 -33 -3 -40 -20 -40 -19 0 -20 7 -20 114 0 101 2 115 18 119 33 9 79 7 111
-4z m246 -9 c0 -11 -14 -16 -53 -18 l-53 -3 3 -32 c3 -31 5 -32 51 -35 63 -4
58 -26 -6 -30 -46 -3 -47 -4 -47 -37 l0 -34 55 -3 c84 -5 72 -23 -17 -26 l-78
-3 0 115 c0 130 -4 125 90 123 42 -2 55 -6 55 -17z m185 5 c21 -11 30 -23 30
-40 0 -30 -26 -34 -35 -5 -8 25 -46 35 -75 20 -27 -14 -22 -42 9 -55 87 -36
106 -50 109 -82 5 -46 -35 -68 -114 -64 -24 1 -64 36 -64 56 0 22 33 18 48 -6
10 -15 21 -19 50 -17 32 3 37 6 37 28 0 20 -9 28 -50 43 -61 22 -85 43 -85 72
0 53 80 81 140 50z m224 -6 c14 -11 26 -27 26 -34 0 -26 -21 -27 -45 -1 -27
29 -56 33 -79 11 -21 -21 -11 -41 27 -55 79 -29 95 -39 101 -65 18 -72 -114
-107 -166 -44 -10 12 -18 25 -18 30 0 17 39 9 50 -11 13 -24 71 -28 90 -5 17
21 -9 50 -52 59 -54 11 -78 32 -78 71 0 27 6 37 28 49 38 21 85 19 116 -5z
m366 6 c21 -11 30 -23 30 -40 0 -30 -26 -34 -35 -5 -8 25 -46 35 -75 20 -27
-14 -22 -42 9 -55 87 -36 106 -50 109 -82 5 -46 -35 -68 -114 -64 -24 1 -64
36 -64 56 0 22 33 18 48 -6 10 -15 21 -19 50 -17 32 3 37 6 37 28 0 20 -9 28
-50 43 -61 22 -85 43 -85 72 0 53 80 81 140 50z m-12040 -85 c0 -83 -2 -93
-25 -115 -28 -29 -95 -36 -95 -10 0 10 10 15 28 15 45 0 52 16 52 112 0 81 2
88 20 88 19 0 20 -7 20 -90z m206 -15 c49 -115 51 -125 25 -125 -12 0 -21 9
-25 25 -6 23 -11 25 -61 25 -49 0 -57 -3 -67 -25 -11 -25 -55 -37 -45 -12 3 6
24 58 47 115 57 135 67 135 126 -3z m455 -2 c24 -60 43 -110 42 -113 -5 -16
-31 -7 -41 15 -10 22 -17 25 -65 25 -48 0 -55 -3 -65 -25 -11 -23 -42 -36 -42
-16 0 8 77 197 87 214 2 4 12 7 22 7 14 0 29 -26 62 -107z m829 -8 c0 -96 -3
-115 -15 -115 -12 0 -15 19 -15 115 0 96 3 115 15 115 12 0 15 -19 15 -115z
m1701 8 c24 -60 43 -110 42 -113 -5 -16 -31 -7 -41 15 -10 22 -17 25 -65 25
-48 0 -55 -3 -65 -25 -11 -23 -42 -36 -42 -16 0 8 77 197 87 214 2 4 12 7 22
7 14 0 29 -26 62 -107z m669 33 c0 -121 -21 -156 -95 -156 -46 0 -43 22 5 31
18 4 36 13 41 21 5 7 9 50 9 96 0 75 2 82 20 82 18 0 20 -7 20 -74z m8000 0
c0 -89 -13 -130 -46 -145 -37 -16 -84 -14 -84 4 0 9 9 15 24 15 53 0 56 5 56
106 0 94 0 94 25 94 24 0 25 -2 25 -74z m-15845 14 c0 -10 -12 -16 -32 -18
l-32 -3 -3 -97 c-3 -83 -6 -97 -20 -100 -16 -3 -18 7 -18 97 l0 101 -34 0
c-38 0 -57 17 -35 31 8 5 50 8 94 7 63 -2 80 -6 80 -18z m293 -106 c-3 -94 -5
-109 -20 -112 -16 -3 -18 6 -18 80 l0 83 -35 -53 c-20 -28 -42 -52 -50 -52 -8
0 -29 21 -47 48 l-33 47 -5 -75 c-4 -61 -8 -75 -22 -78 -16 -3 -18 7 -18 112
0 109 1 116 20 116 12 0 33 -21 60 -60 22 -33 43 -60 45 -60 2 0 22 27 44 59
69 102 83 92 79 -55z m9317 106 c0 -11 -14 -16 -53 -18 l-53 -3 3 -32 c3 -31
5 -32 51 -35 63 -4 58 -26 -6 -30 -46 -3 -47 -4 -47 -37 l0 -34 55 -3 c84 -5
72 -23 -17 -26 l-78 -3 0 115 c0 130 -4 125 90 123 42 -2 55 -6 55 -17z m205
-46 l-39 -56 23 -32 c13 -17 31 -43 41 -58 17 -27 17 -28 -4 -28 -13 0 -30 14
-47 40 -15 22 -30 40 -35 40 -5 0 -21 -18 -35 -40 -15 -23 -35 -40 -45 -40
-26 0 -24 5 16 61 19 27 35 52 35 57 0 4 -16 31 -35 60 -34 50 -35 52 -13 52
16 0 31 -13 49 -41 l26 -41 29 41 c27 37 49 52 66 44 4 -2 -11 -29 -32 -59z
m245 46 c0 -10 -12 -16 -32 -18 l-32 -3 -3 -97 c-3 -83 -6 -97 -20 -100 -16
-3 -18 7 -18 97 l0 101 -34 0 c-38 0 -57 17 -35 31 8 5 50 8 94 7 63 -2 80 -6
80 -18z m335 5 c21 -11 30 -23 30 -40 0 -30 -26 -34 -35 -5 -8 25 -46 35 -75
20 -27 -14 -22 -42 9 -55 87 -36 106 -50 109 -82 5 -46 -35 -68 -114 -64 -24
1 -64 36 -64 56 0 22 33 18 48 -6 10 -15 21 -19 50 -17 32 3 37 6 37 28 0 20
-9 28 -50 43 -61 22 -85 43 -85 72 0 53 80 81 140 50z m1911 -8 c46 -31 66
-85 50 -138 -16 -52 -58 -79 -124 -79 -42 0 -54 5 -83 34 -28 28 -34 42 -34
75 0 55 24 99 63 116 47 21 90 18 128 -8z m213 13 c78 -18 118 -99 82 -168
-22 -43 -63 -62 -136 -62 l-60 0 0 114 c0 101 2 115 18 119 29 8 55 7 96 -3z
m281 -10 c0 -11 -14 -16 -53 -18 l-53 -3 3 -32 c3 -31 4 -32 56 -35 45 -3 52
-5 42 -18 -8 -8 -30 -14 -56 -14 -43 0 -44 0 -44 -35 l0 -34 55 -3 c84 -5 72
-23 -17 -26 l-78 -3 0 115 c0 130 -4 125 90 123 42 -2 55 -6 55 -17z m359 -1
c14 -11 26 -27 26 -34 0 -26 -21 -27 -45 -1 -27 29 -56 33 -79 11 -21 -21 -11
-41 27 -55 79 -29 95 -39 101 -65 18 -72 -114 -107 -166 -44 -10 12 -18 25
-18 30 0 17 39 9 50 -11 13 -24 71 -28 90 -5 17 21 -9 50 -52 59 -54 11 -78
32 -78 71 0 27 6 37 28 49 38 21 85 19 116 -5z m-13534 -34 l0 -45 55 0 55 0
0 45 c0 38 3 45 20 45 19 0 20 -7 20 -115 0 -108 -1 -115 -20 -115 -17 0 -20
7 -20 50 l0 50 -54 0 -55 0 -3 -47 c-2 -36 -7 -49 -20 -51 -16 -3 -18 7 -18
112 0 109 1 116 20 116 17 0 20 -7 20 -45z m760 -55 l0 -99 55 -3 c81 -4 73
-22 -12 -26 l-73 -3 0 116 c0 96 3 115 15 115 12 0 15 -18 15 -100z m8921 24
c59 -85 69 -84 69 14 0 48 3 62 15 62 12 0 15 -19 15 -115 0 -145 -11 -149
-90 -35 l-55 79 -5 -77 c-4 -63 -8 -77 -22 -80 -16 -3 -18 7 -18 112 0 108 1
116 19 116 13 0 37 -25 72 -76z m899 -16 c0 -51 -4 -98 -8 -104 -21 -33 -112
-48 -112 -19 0 9 9 15 24 15 53 0 56 5 56 106 0 87 1 94 20 94 19 0 20 -7 20
-92z m1761 16 c59 -85 69 -84 69 14 0 48 3 62 15 62 12 0 15 -19 15 -115 0
-145 -11 -149 -90 -35 l-55 79 -5 -77 c-4 -63 -8 -77 -22 -80 -16 -3 -18 7
-18 112 0 108 1 116 19 116 13 0 37 -25 72 -76z m999 -14 c0 -83 -2 -93 -25
-115 -28 -29 -95 -36 -95 -10 0 10 10 15 28 15 45 0 52 16 52 112 0 81 2 88
20 88 19 0 20 -7 20 -90z m-5223 -1450 c16 -38 22 -76 23 -125 0 -125 -51
-200 -247 -362 -130 -107 -148 -134 -139 -215 9 -72 38 -170 77 -257 38 -85
26 -99 -38 -44 -27 22 -72 71 -101 109 -161 212 -115 371 167 573 53 38 111
84 129 103 43 46 72 131 72 213 0 58 2 66 17 63 11 -2 27 -26 40 -58z m-2668
-2 c13 -28 60 -90 103 -137 101 -109 168 -203 222 -311 110 -218 150 -421 126
-625 -29 -243 -132 -442 -318 -616 -44 -41 -85 -85 -93 -99 -8 -16 -13 -62
-14 -127 0 -85 -3 -103 -15 -103 -30 0 -37 16 -44 90 -13 133 -21 153 -87 205
-151 122 -285 324 -345 521 -25 82 -28 103 -28 259 0 143 3 184 22 260 62 251
161 423 346 604 60 58 86 91 86 107 0 37 13 28 39 -28z m5056 6 c293 -56 559
-262 695 -539 85 -173 115 -339 99 -544 -27 -351 -252 -668 -583 -821 -152
-70 -227 -85 -426 -84 -161 0 -182 2 -265 27 -374 114 -640 402 -717 777 -26
126 -21 336 12 455 125 460 557 774 1030 748 41 -2 111 -11 155 -19z m3097
-12 c133 -65 209 -185 210 -330 0 -65 -4 -83 -35 -146 -20 -39 -52 -86 -71
-105 l-35 -34 49 -54 c116 -127 124 -312 20 -450 -68 -91 -195 -153 -311 -153
-52 0 -163 31 -194 54 -11 9 -23 16 -27 16 -3 0 -8 -87 -10 -192 -3 -187 -4
-195 -30 -244 -37 -71 -74 -111 -133 -150 -198 -126 -456 -55 -561 154 -25 50
-28 68 -28 147 0 79 3 97 28 149 16 33 48 79 71 102 l42 42 -34 33 c-144 135
-147 365 -8 505 l43 42 -35 34 c-197 187 -123 504 140 598 48 18 83 19 447 17
l395 -2 67 -33z m-12352 -14 c18 -13 43 -36 54 -51 21 -28 21 -34 24 -885 2
-563 -1 -869 -7 -892 -6 -20 -27 -51 -46 -70 l-36 -35 -894 0 -894 0 -32 30
c-62 58 -59 15 -59 944 0 576 3 859 11 878 12 33 56 82 84 93 11 5 412 9 891
9 l871 1 33 -22z m13920 -52 c36 -12 95 -40 130 -60 64 -38 66 -38 115 -26 86
21 337 24 443 6 l93 -16 72 39 c94 52 184 81 247 81 74 0 86 -10 111 -91 18
-61 21 -88 17 -184 -4 -87 -2 -116 9 -131 25 -32 64 -115 81 -168 12 -37 16
-86 15 -176 -2 -205 -55 -348 -171 -465 -61 -61 -159 -116 -252 -141 -36 -10
-68 -20 -72 -23 -4 -4 -1 -28 7 -55 11 -35 15 -99 15 -223 0 -160 -2 -175 -20
-193 -24 -24 -67 -26 -92 -3 -16 14 -18 34 -18 177 0 178 -8 222 -51 280 -31
43 -38 96 -15 115 8 6 52 18 99 26 309 54 438 206 439 515 1 124 -18 183 -83
269 -39 52 -41 57 -33 100 10 59 11 227 2 236 -13 13 -111 -25 -198 -77 l-85
-50 -85 18 c-119 26 -353 26 -467 0 l-82 -19 -48 31 c-68 44 -176 93 -209 95
-27 2 -29 -1 -36 -52 -5 -34 -4 -75 3 -110 23 -114 23 -116 -10 -153 -91 -104
-120 -246 -86 -423 43 -227 170 -337 445 -385 36 -6 73 -19 83 -27 24 -23 21
-61 -9 -100 -49 -64 -54 -90 -54 -273 0 -157 -2 -172 -20 -190 -24 -24 -67
-26 -92 -3 -13 12 -18 31 -18 75 l0 58 -82 -6 c-97 -7 -188 11 -271 52 -99 51
-257 237 -257 304 0 35 28 60 66 60 31 0 38 -7 89 -85 95 -144 186 -198 335
-199 116 0 120 2 120 67 0 30 7 74 15 97 8 24 14 44 13 46 -2 1 -46 16 -98 33
-172 57 -277 148 -345 296 -48 104 -60 164 -60 310 0 151 13 205 74 307 41 66
41 66 30 125 -18 95 7 248 49 296 22 25 120 22 202 -7z m-6900 -297 c0 -6 -12
-21 -27 -33 -79 -61 -184 -159 -203 -191 -31 -50 -28 -95 9 -153 68 -106 76
-159 35 -239 -24 -49 -93 -123 -113 -123 -19 0 -21 18 -6 54 26 63 20 99 -30
167 -53 71 -79 152 -72 217 10 88 95 170 271 262 94 49 136 61 136 39z m-4938
-157 c72 -25 121 -60 230 -161 115 -105 135 -116 228 -116 86 0 117 13 188 78
40 38 44 39 38 17 -37 -129 -139 -242 -253 -281 -56 -20 -87 -24 -178 -23
-169 1 -240 34 -401 186 -47 43 -104 88 -127 98 -94 43 -214 14 -298 -72 -48
-49 -48 -38 1 69 51 110 146 189 265 220 73 18 236 11 307 -15z m5226 -499
c36 -26 72 -99 72 -146 0 -79 -51 -142 -158 -196 -128 -65 -233 -74 -152 -13
63 46 169 159 176 186 16 64 -20 101 -118 119 -74 15 -74 35 2 59 67 22 141
18 178 -9z m-5716 -4 c85 -18 165 -67 268 -164 119 -113 152 -130 245 -130 83
1 118 17 189 84 42 40 47 43 41 21 -14 -53 -67 -149 -105 -193 -84 -95 -244
-142 -403 -119 -119 17 -189 55 -309 169 -116 110 -158 133 -243 133 -75 0
-135 -26 -192 -83 -24 -22 -43 -35 -43 -28 0 8 16 48 36 89 75 156 198 230
386 231 42 1 101 -4 130 -10z m4803 -14 c0 -5 -40 -23 -88 -38 -48 -16 -87
-32 -87 -36 0 -37 594 -26 789 15 29 6 33 5 29 -12 -5 -27 -116 -79 -220 -104
-137 -32 -332 -45 -484 -32 -153 14 -227 34 -266 72 -33 34 -35 49 -8 82 18
24 87 49 170 62 47 7 165 1 165 -9z m-75 -227 c0 -6 -7 -19 -16 -29 -15 -17
-13 -18 23 -26 72 -15 341 -9 459 11 l111 18 41 -28 c77 -53 49 -67 -198 -104
-159 -24 -280 -25 -383 -6 -95 18 -141 38 -161 69 -23 34 -11 56 48 83 57 27
76 30 76 12z m50 -227 c0 -21 24 -27 160 -37 60 -4 119 -1 197 11 l111 17 56
-33 c35 -21 55 -40 54 -49 -8 -39 -247 -85 -398 -77 -219 13 -324 58 -306 133
12 46 126 78 126 35z m-162 -133 c-2 -6 -15 -15 -29 -19 -13 -4 -50 -15 -81
-25 -32 -9 -58 -20 -58 -25 0 -30 258 -60 515 -59 344 0 691 54 671 105 -9 24
24 32 40 10 53 -73 -57 -139 -296 -179 -363 -60 -913 -42 -1038 34 -59 36 -62
90 -7 126 49 32 292 60 283 32z m1152 -124 c0 -27 -33 -73 -71 -99 -54 -38
-132 -62 -264 -81 -269 -38 -850 -7 -850 45 0 10 71 13 345 12 361 -2 487 6
608 39 74 20 185 71 197 90 10 16 35 12 35 -6z m-8990 -934 c24 -24 25 -36 6
-72 -12 -23 -12 -27 0 -32 8 -3 14 -19 14 -40 0 -53 -36 -76 -116 -76 l-64 0
0 114 c0 82 4 116 13 119 6 3 38 6 70 6 44 1 61 -3 77 -19z m249 6 c72 -38 67
-172 -9 -211 -42 -22 -112 -19 -143 6 -30 23 -52 86 -44 121 9 33 45 78 71 88
33 14 94 11 125 -4z m280 0 c72 -38 67 -172 -9 -211 -42 -22 -112 -19 -143 6
-30 23 -52 86 -44 121 9 33 45 78 71 88 33 14 94 11 125 -4z m271 4 c0 -11 -7
-14 -52 -24 -27 -6 -27 -7 -30 -103 -3 -84 -6 -98 -20 -101 -16 -3 -18 7 -18
102 l0 106 -40 0 c-38 0 -54 13 -27 23 24 10 187 7 187 -3z m188 -6 c29 -20
31 -85 2 -114 -25 -25 -25 -29 0 -60 25 -32 25 -50 1 -50 -10 0 -30 17 -45 40
-19 29 -33 40 -51 40 -22 0 -25 -4 -25 -40 0 -29 -4 -40 -15 -40 -12 0 -15 19
-15 113 0 63 3 117 7 120 13 14 118 7 141 -9z m228 -97 c24 -60 42 -113 39
-118 -12 -18 -35 -9 -41 16 -6 23 -11 25 -63 25 -52 0 -59 -3 -69 -25 -10 -21
-42 -36 -42 -19 0 10 83 209 93 222 21 27 40 4 83 -101z m229 88 c57 -56 14
-128 -80 -137 -26 -3 -31 -8 -35 -38 -3 -23 -11 -36 -22 -38 -16 -3 -18 7 -18
111 0 83 4 117 13 120 6 3 36 6 65 6 43 1 57 -3 77 -24z m1405 10 c0 -9 -9
-15 -22 -15 -42 0 -47 -12 -50 -110 -3 -80 -6 -95 -20 -98 -15 -3 -18 9 -20
100 l-3 103 -37 3 c-36 3 -46 11 -31 25 3 4 46 7 95 7 72 0 88 -3 88 -15z
m193 -97 c25 -61 44 -115 41 -120 -10 -16 -31 -8 -42 17 -10 22 -18 25 -67 25
-50 0 -56 -2 -65 -25 -9 -23 -40 -36 -40 -16 0 13 81 204 92 219 22 26 37 8
81 -100z m115 -5 c-3 -103 -5 -118 -20 -121 -16 -3 -18 7 -18 111 0 112 3 123
33 126 4 1 6 -52 5 -116z m104 15 l3 -103 53 -3 c81 -5 62 -26 -26 -30 l-72
-3 0 114 c0 114 3 127 26 127 10 0 14 -27 16 -102z m185 15 l29 -87 24 65 c49
135 67 140 106 29 15 -44 30 -80 34 -80 4 0 17 34 30 75 20 65 42 96 58 81 2
-3 -13 -56 -34 -118 -50 -145 -60 -148 -104 -33 -18 48 -35 83 -39 78 -4 -4
-18 -37 -31 -73 -24 -70 -36 -90 -54 -90 -13 0 -88 218 -80 232 16 25 35 1 61
-79z m353 -33 c0 -100 -2 -120 -15 -120 -12 0 -15 19 -15 113 0 63 3 117 7
120 18 19 23 -3 23 -113z m160 40 l55 -79 5 77 c4 63 8 77 23 80 16 3 17 -6
15 -115 -4 -152 -13 -156 -94 -41 l-59 83 -5 -80 c-4 -66 -8 -80 -22 -83 -16
-3 -18 7 -18 111 0 114 3 124 35 126 6 0 35 -35 65 -79z m317 60 c51 -31 63
-127 21 -177 -21 -25 -73 -43 -128 -43 l-50 0 0 113 c0 63 3 117 7 120 15 16
118 7 150 -13z m777 -40 c21 -33 42 -60 47 -60 4 0 27 27 49 60 62 91 71 84
68 -57 -3 -102 -5 -118 -20 -121 -15 -3 -18 8 -20 80 l-3 83 -34 -53 c-18 -28
-38 -52 -45 -52 -7 0 -28 21 -47 48 l-34 47 -5 -75 c-4 -61 -8 -75 -22 -78
-16 -3 -18 7 -18 111 0 114 3 124 35 126 6 1 27 -26 49 -59z m419 39 c59 -46
57 -142 -4 -194 -24 -19 -42 -25 -81 -25 -44 0 -54 4 -84 34 -28 28 -34 42
-34 75 0 84 47 130 131 131 32 0 54 -6 72 -21z m187 -63 l55 -79 5 79 c4 65 8
79 23 82 16 3 17 -6 15 -115 -3 -109 -4 -118 -23 -118 -13 0 -37 26 -75 79
l-55 79 -5 -79 c-4 -65 -8 -79 -22 -82 -16 -3 -18 7 -18 111 0 62 3 117 7 121
17 16 41 -4 93 -78z m351 54 c30 -30 31 -50 3 -50 -9 0 -24 10 -34 22 -26 32
-95 32 -121 -1 -62 -76 38 -191 114 -131 41 33 35 50 -18 50 -33 0 -45 4 -45
15 0 12 14 15 65 15 59 0 65 -2 65 -20 0 -29 -26 -76 -52 -94 -13 -9 -43 -16
-70 -16 -63 0 -107 36 -115 96 -11 84 43 143 130 144 41 0 53 -5 78 -30z m281
0 c29 -29 30 -34 26 -92 -4 -53 -9 -65 -36 -89 -53 -47 -151 -37 -188 18 -18
29 -21 102 -4 133 19 35 70 60 123 60 41 0 53 -5 79 -30z m228 15 c32 -16 60
-61 60 -95 0 -39 -29 -89 -62 -110 -23 -14 -50 -20 -90 -20 l-58 0 0 113 c0
63 3 117 7 120 12 13 114 7 143 -8z m248 -1 c23 -16 29 -57 13 -83 -6 -9 -4
-19 5 -28 21 -22 17 -61 -11 -88 -21 -22 -33 -25 -90 -25 l-65 0 0 113 c0 63
3 117 7 120 13 14 118 7 141 -9z m1202 -79 c0 -88 -2 -98 -25 -120 -28 -29
-95 -36 -95 -10 0 8 9 15 21 15 51 0 59 15 59 110 0 85 4 96 33 99 4 1 7 -42
7 -94z m213 -17 c25 -61 44 -115 41 -120 -10 -16 -31 -8 -42 17 -10 22 -18 25
-67 25 -50 0 -56 -2 -65 -25 -9 -23 -40 -36 -40 -16 0 13 81 204 92 219 22 26
37 8 81 -100z m126 26 c18 -47 37 -82 41 -77 4 4 20 40 35 80 24 62 48 93 62
80 2 -2 -17 -55 -41 -118 -60 -153 -68 -153 -124 -10 -24 61 -41 115 -37 121
15 24 32 4 64 -76z m327 -19 c23 -55 43 -108 43 -117 1 -29 -36 -22 -43 7 -6
23 -11 25 -65 25 -50 0 -59 -3 -64 -20 -5 -19 -33 -37 -42 -28 -5 4 75 204 91
230 16 26 41 -4 80 -97z m1264 86 c18 -14 24 -29 24 -55 0 -48 -30 -78 -86
-85 -40 -6 -43 -8 -48 -41 -3 -23 -11 -36 -22 -38 -16 -3 -18 7 -18 111 0 62
3 117 7 120 15 16 118 6 143 -12z m260 -8 c58 -52 48 -156 -19 -196 -77 -46
-177 -4 -188 79 -11 83 43 143 129 144 38 0 54 -6 78 -27z m230 7 c22 -22 24
-29 10 -50 -7 -12 -13 -10 -34 13 -28 30 -67 35 -86 12 -17 -20 0 -40 48 -56
62 -19 82 -36 82 -69 0 -45 -31 -70 -85 -70 -35 0 -52 6 -70 25 -29 28 -31 40
-10 49 8 3 26 -6 40 -20 34 -34 80 -31 80 6 0 20 -8 27 -50 43 -51 18 -85 48
-85 74 0 7 11 25 25 38 32 33 105 35 135 5z m240 5 c0 -10 -10 -15 -27 -15
-47 0 -52 -10 -55 -110 -2 -62 -7 -95 -15 -97 -9 -3 -13 23 -15 99 l-3 103
-37 3 c-36 3 -46 11 -31 25 3 4 46 7 95 7 72 0 88 -3 88 -15z m120 -50 c23
-36 44 -65 45 -65 2 0 18 23 36 51 39 61 56 79 75 79 12 0 14 -20 12 -117 -3
-102 -5 -118 -20 -121 -15 -3 -18 8 -20 80 l-3 82 -37 -52 c-21 -28 -44 -52
-50 -52 -7 0 -26 21 -43 48 l-30 47 -5 -75 c-4 -61 -8 -75 -22 -78 -16 -3 -18
7 -18 111 0 62 3 117 7 120 16 17 33 3 73 -58z m376 -48 c24 -60 42 -113 39
-118 -12 -18 -35 -9 -41 16 -6 23 -11 25 -63 25 -52 0 -59 -3 -69 -25 -10 -21
-42 -36 -42 -19 0 10 83 209 93 222 21 27 40 4 83 -101z m174 33 l55 -79 5 77
c4 63 8 77 23 80 16 3 17 -6 15 -115 -4 -152 -13 -156 -94 -41 l-59 83 -5 -80
c-4 -66 -8 -80 -22 -83 -16 -3 -18 7 -18 111 0 114 3 124 35 126 6 0 35 -35
65 -79z m1838 68 c-3 -7 -18 -14 -34 -16 -67 -6 -74 -10 -74 -47 l0 -35 51 0
c64 0 63 -23 -2 -30 -44 -5 -44 -5 -49 -50 -4 -32 -10 -46 -22 -48 -16 -3 -18
7 -18 111 0 83 4 117 13 120 6 3 41 6 75 6 47 1 63 -2 60 -11z m80 -105 c-3
-103 -5 -118 -20 -121 -16 -3 -18 7 -18 111 0 115 3 127 27 127 11 0 13 -23
11 -117z m251 91 c17 -14 31 -30 31 -35 0 -20 -32 -21 -53 -1 -68 62 -162 12
-142 -76 16 -75 117 -96 151 -31 l15 29 -51 0 c-38 0 -50 4 -50 15 0 12 14 15
70 15 41 0 70 -4 70 -10 0 -25 -30 -78 -55 -98 -20 -16 -42 -22 -77 -22 -41 0
-54 5 -78 28 -80 81 -24 212 90 212 38 0 55 -6 79 -26z m165 -40 l44 -65 44
63 c24 34 51 64 61 66 16 3 17 -7 15 -115 -3 -102 -5 -118 -20 -121 -15 -3
-18 8 -20 77 l-3 81 -35 -47 c-19 -26 -40 -48 -47 -50 -6 -2 -26 18 -45 44
l-33 48 -5 -75 c-4 -61 -8 -75 -22 -78 -16 -3 -18 7 -18 111 0 62 3 117 7 120
16 17 36 2 77 -59z m372 -39 c23 -55 43 -108 43 -117 1 -29 -36 -22 -43 7 -6
23 -11 25 -65 25 -50 0 -59 -3 -64 -20 -5 -19 -33 -37 -42 -28 -5 4 75 204 91
230 16 26 41 -4 80 -97z m1523 90 c30 -15 45 -40 35 -56 -7 -12 -34 -12 -34 1
0 12 -54 40 -78 40 -11 0 -31 -9 -46 -21 -21 -16 -26 -29 -26 -64 0 -36 5 -48
31 -69 37 -31 67 -33 103 -5 40 32 34 49 -19 49 -33 0 -45 4 -45 15 0 12 14
15 65 15 59 0 65 -2 65 -20 0 -61 -58 -110 -131 -110 -33 0 -47 6 -75 34 -28
28 -34 42 -34 75 0 80 47 130 123 131 21 0 51 -7 66 -15z m131 -105 c0 -100
-2 -120 -15 -120 -12 0 -15 19 -15 113 0 63 3 117 7 120 18 19 23 -3 23 -113z
m240 110 c0 -11 -7 -14 -52 -24 -27 -6 -27 -7 -30 -103 -3 -84 -6 -98 -20
-101 -16 -3 -18 7 -18 102 l0 106 -40 0 c-38 0 -49 8 -33 23 11 12 193 8 193
-3z m70 -40 l0 -50 59 0 60 0 3 47 c2 36 7 49 21 51 16 3 17 -6 15 -115 -3
-101 -5 -118 -20 -121 -14 -3 -17 6 -20 50 -3 52 -3 53 -37 56 -66 7 -80 -3
-83 -55 -2 -36 -7 -49 -20 -51 -16 -3 -18 7 -18 111 0 112 3 123 33 126 4 1 7
-21 7 -49z m250 -35 c0 -72 3 -88 20 -105 24 -24 53 -26 74 -4 12 12 16 36 16
100 0 46 2 84 4 84 2 0 12 3 21 6 15 6 17 -2 14 -90 -4 -93 -5 -99 -32 -122
-28 -24 -76 -31 -112 -18 -30 12 -45 60 -45 142 0 80 3 92 27 92 10 0 13 -21
13 -85z m360 65 c22 -22 25 -42 10 -71 -8 -14 -6 -25 6 -44 14 -21 14 -30 5
-54 -16 -37 -48 -51 -116 -51 l-55 0 0 113 c0 63 3 117 7 120 3 4 33 7 65 7
45 0 63 -5 78 -20z m-13209 -299 c18 -18 27 -35 23 -45 -9 -23 -29 -20 -48 8
-21 32 -66 42 -105 22 -57 -30 -50 -125 12 -154 35 -17 65 -10 101 23 53 49
65 22 12 -31 -30 -30 -40 -34 -85 -34 -66 0 -110 35 -118 96 -11 84 43 143
130 144 40 0 53 -5 78 -29z m217 13 c23 -16 29 -48 11 -59 -5 -4 -21 5 -34 19
-26 28 -45 32 -76 16 -30 -16 -7 -48 44 -61 54 -13 74 -29 82 -62 17 -67 -106
-107 -160 -52 -29 28 -31 40 -9 49 10 4 25 -3 40 -19 26 -28 65 -33 84 -10 17
21 -9 50 -52 59 -54 11 -78 32 -78 71 0 43 29 65 85 65 22 0 51 -7 63 -16z
m222 -4 c22 -22 24 -29 10 -50 -7 -12 -13 -10 -34 13 -28 30 -67 35 -86 12
-17 -20 0 -40 48 -56 62 -19 82 -36 82 -69 0 -45 -31 -70 -85 -70 -35 0 -52 6
-70 25 -29 28 -31 40 -10 49 8 3 26 -6 40 -20 34 -34 80 -31 80 6 0 20 -8 27
-50 43 -51 18 -85 48 -85 74 0 7 11 25 25 38 32 33 105 35 135 5z"/>
<path d="M12172 8248 c-9 -9 -12 -85 -12 -280 l0 -268 58 -87 57 -86 3 353 c2
252 -1 357 -9 366 -14 17 -81 18 -97 2z"/>
<path d="M4060 8478 c0 -18 3 -63 7 -100 l6 -68 373 0 374 0 0 -28 c0 -16 -3
-63 -6 -105 l-7 -77 -246 -2 -245 -3 2 -50 c1 -27 5 -71 8 -97 l6 -48 223 0
c123 0 226 -3 228 -7 7 -13 -14 -247 -23 -257 -4 -4 -53 -21 -109 -36 l-101
-28 -109 30 c-119 34 -120 35 -121 113 -1 85 -1 85 -108 85 l-95 0 6 -67 c4
-38 9 -110 13 -161 l7 -92 66 -19 c206 -61 318 -91 336 -91 20 0 392 104 400
111 6 6 93 1013 88 1022 -2 4 -222 7 -489 7 l-484 0 0 -32z"/>
<path d="M1617 8408 c3 -40 15 -179 27 -308 l21 -235 358 -3 358 -2 -6 -43
c-3 -23 -9 -82 -14 -130 -5 -48 -10 -90 -12 -91 -2 -2 -54 -17 -114 -34 l-111
-29 -114 31 -115 31 -9 83 -8 82 -100 0 -101 0 7 -102 c4 -57 9 -130 12 -164
l6 -61 211 -57 212 -58 205 57 c113 31 208 59 211 63 6 6 60 569 59 615 0 16
-25 17 -374 17 l-373 0 -6 68 c-4 37 -7 84 -7 105 l0 37 390 0 389 0 5 33 c3
17 7 62 10 100 l5 67 -514 0 -514 0 6 -72z"/>
<path d="M8952 8663 c-39 -38 -52 -88 -52 -194 0 -86 15 -197 29 -212 4 -4 28
-4 52 2 24 5 82 14 129 21 83 11 86 12 114 52 16 22 53 69 82 103 l53 62 -32
30 c-95 88 -212 152 -293 160 -49 5 -55 3 -82 -24z"/>
<path d="M9726 8669 c-59 -24 -137 -75 -199 -130 l-46 -40 61 -72 c33 -40 70
-86 82 -104 19 -29 27 -32 106 -43 47 -6 101 -16 120 -21 65 -17 67 -16 79 66
24 166 6 304 -46 344 -33 27 -92 27 -157 0z"/>
<path d="M9361 8368 l-51 -63 55 -3 c30 -2 81 -2 112 0 l56 3 -52 63 c-28 34
-56 62 -60 62 -5 0 -32 -28 -60 -62z"/>
<path d="M9197 8143 c-24 -38 -65 -109 -92 -159 l-49 -90 49 -90 c27 -49 68
-119 92 -156 l43 -68 180 0 181 0 47 74 c27 41 68 112 92 159 l44 83 -47 87
c-26 48 -67 118 -92 157 l-45 70 -180 0 -180 0 -43 -67z m320 -99 c114 -66
106 -252 -14 -309 -81 -39 -184 -14 -230 57 -71 106 -20 239 105 278 38 12 90
3 139 -26z"/>
<path d="M9005 8178 c-27 -6 -51 -12 -53 -13 -2 -2 25 -83 47 -140 l12 -29 55
93 c29 51 54 95 54 97 0 7 -63 2 -115 -8z"/>
<path d="M9720 8186 c0 -2 25 -46 54 -97 l55 -93 12 29 c22 57 49 138 47 140
-16 11 -168 30 -168 21z"/>
<path d="M8785 8117 c-107 -40 -178 -81 -232 -133 -44 -42 -53 -56 -53 -86 0
-20 10 -50 23 -69 30 -46 129 -111 224 -147 111 -42 123 -45 123 -31 0 7 21
64 46 128 43 105 46 118 34 146 -7 16 -28 72 -48 123 -19 50 -40 92 -46 91 -6
0 -38 -10 -71 -22z"/>
<path d="M9960 8103 c-7 -21 -28 -76 -47 -122 l-34 -83 46 -112 c25 -62 45
-118 45 -124 0 -19 26 -14 108 19 159 63 262 147 262 214 0 65 -99 147 -250
208 -112 44 -116 44 -130 0z"/>
<path d="M8981 7709 c-17 -45 -29 -84 -26 -87 6 -6 166 -34 170 -30 2 2 -23
47 -55 101 l-58 98 -31 -82z"/>
<path d="M9769 7691 c-31 -53 -56 -97 -55 -98 4 -4 168 26 174 32 6 5 -47 153
-57 159 -3 2 -31 -40 -62 -93z"/>
<path d="M8925 7531 c-11 -18 -25 -137 -25 -208 0 -161 36 -223 129 -223 57 0
159 46 247 113 95 72 93 67 32 139 -29 35 -67 82 -83 105 -24 34 -36 43 -60
43 -16 0 -76 9 -133 18 -57 10 -105 16 -107 13z"/>
<path d="M9870 7531 c-14 -4 -69 -14 -123 -21 -94 -13 -98 -15 -124 -49 -14
-20 -51 -67 -81 -104 l-55 -68 24 -25 c36 -39 139 -110 200 -139 72 -33 147
-34 177 -2 40 42 54 95 55 202 0 109 -18 215 -36 214 -7 0 -23 -4 -37 -8z"/>
<path d="M9319 7473 c6 -10 32 -42 58 -71 l48 -54 53 65 c28 35 52 67 52 71 0
3 -50 6 -110 6 -103 0 -110 -1 -101 -17z"/>
<path d="M16545 8427 c-116 -39 -204 -114 -253 -218 -29 -63 -52 -147 -52
-194 l0 -25 410 0 410 0 0 30 c0 100 -59 240 -132 313 -71 71 -142 100 -253
104 -56 2 -105 -2 -130 -10z"/>
<path d="M7350 6174 l0 -47 36 6 c42 7 64 23 64 46 0 27 -21 41 -62 41 l-38 0
0 -46z"/>
<path d="M7670 6175 l0 -45 38 0 c43 0 62 14 62 45 0 31 -19 45 -62 45 l-38 0
0 -45z"/>
<path d="M8730 6181 c0 -47 10 -55 56 -46 39 7 49 23 40 60 -6 22 -12 25 -51
25 l-45 0 0 -39z"/>
<path d="M16800 6175 l0 -45 40 0 c33 0 42 4 51 24 18 39 -3 66 -51 66 l-40 0
0 -45z"/>
<path d="M17010 6181 c0 -47 10 -55 56 -46 39 7 49 23 40 60 -6 22 -12 25 -51
25 l-45 0 0 -39z"/>
<path d="M6203 6150 l-20 -45 34 -3 c19 -2 37 -1 40 1 2 3 -4 25 -15 49 l-20
43 -19 -45z"/>
<path d="M6656 6150 c-9 -22 -16 -43 -16 -45 0 -3 16 -5 35 -5 19 0 35 5 35
10 0 14 -28 80 -33 80 -3 0 -12 -18 -21 -40z"/>
<path d="M9186 6150 c-9 -22 -16 -43 -16 -45 0 -3 16 -5 35 -5 19 0 35 5 35
10 0 14 -28 80 -33 80 -3 0 -12 -18 -21 -40z"/>
<path d="M14295 6169 c-33 -19 -45 -41 -45 -84 0 -66 59 -104 125 -79 45 18
56 112 17 148 -24 21 -72 29 -97 15z"/>
<path d="M14540 6085 l0 -85 40 0 c79 0 118 82 69 144 -17 21 -29 26 -65 26
l-44 0 0 -85z"/>
<path d="M12440 4299 c-37 -15 -78 -58 -91 -96 -25 -78 25 -172 103 -193 44
-12 98 -5 98 13 0 6 -23 33 -52 60 l-52 48 74 74 74 74 -37 16 c-41 17 -80 18
-117 4z"/>
<path d="M12540 4195 l-65 -65 53 -53 53 -52 29 33 c45 54 50 129 12 180 l-17
22 -65 -65z m75 -26 c10 -15 -3 -59 -18 -59 -9 0 -12 11 -9 35 4 35 15 45 27
24z"/>
<path d="M12225 4054 c-52 -27 -135 -94 -258 -208 l-118 -110 40 -40 41 -41
193 191 c105 105 201 194 212 198 16 6 17 9 5 16 -23 15 -82 12 -115 -6z"/>
<path d="M12141 3835 l-196 -195 25 -25 25 -25 200 176 c110 96 204 184 209
194 12 26 -17 70 -46 70 -15 0 -84 -61 -217 -195z"/>
<path d="M12207 3752 l-198 -176 36 -35 35 -36 96 95 c110 109 207 232 224
285 7 20 10 38 8 39 -1 2 -92 -76 -201 -172z"/>
<path d="M11775 3660 c-33 -33 -44 -50 -33 -50 20 0 151 30 157 36 7 6 -51 64
-64 64 -6 0 -33 -22 -60 -50z"/>
<path d="M11894 3589 l-29 -31 35 7 c73 14 74 14 54 36 -22 25 -25 24 -60 -12z"/>
<path d="M11895 3543 c-58 -13 -64 -18 -217 -171 l-158 -157 52 -52 c29 -29
56 -53 60 -53 5 0 6 24 2 53 l-6 52 85 43 c84 42 263 157 322 206 l30 25 -35
36 c-37 38 -46 40 -135 18z"/>
<path d="M11461 3156 l-43 -44 74 -7 c113 -11 117 -8 61 48 l-49 47 -43 -44z"/>
<path d="M14460 4527 c-52 -17 -126 -93 -140 -146 -20 -77 11 -168 74 -216 55
-42 115 -55 253 -55 l123 0 0 215 0 215 -137 -1 c-76 -1 -154 -6 -173 -12z"/>
<path d="M14922 4328 l3 -213 123 -3 c172 -4 227 15 296 101 28 36 31 45 31
112 0 65 -3 78 -30 117 -20 28 -49 52 -84 71 -52 26 -61 27 -198 27 l-143 0 2
-212z"/>
<path d="M14460 3947 c-53 -17 -126 -93 -140 -147 -29 -107 38 -221 149 -254
37 -11 94 -16 178 -16 l123 0 0 215 0 215 -137 -1 c-76 -1 -154 -6 -173 -12z"/>
<path d="M15054 3936 c-192 -89 -162 -346 47 -396 84 -20 150 -1 215 65 58 57
70 93 61 172 -15 139 -185 223 -323 159z"/>
<path d="M14445 3356 c-99 -46 -147 -134 -126 -232 36 -161 242 -227 370 -117
70 60 81 92 81 243 l0 130 -137 0 c-123 0 -143 -3 -188 -24z"/>
<path d="M1620 3666 l0 -576 308 0 c235 0 322 4 370 15 188 44 269 149 260
334 -7 129 -59 211 -161 249 l-47 18 53 35 c71 47 107 116 107 208 0 36 -5 84
-11 106 -16 57 -89 126 -164 156 -58 22 -73 23 -387 27 l-328 4 0 -576z m613
390 c56 -23 71 -50 75 -130 4 -67 2 -75 -23 -104 -49 -58 -65 -62 -275 -62
l-190 0 0 155 0 155 190 0 c139 0 199 -4 223 -14z m59 -476 c53 -36 72 -74 72
-145 -1 -63 -17 -106 -52 -138 -43 -39 -89 -46 -294 -47 l-198 0 0 181 0 180
218 -3 c213 -3 219 -4 254 -28z"/>
<path d="M1233 1954 c-7 -3 -13 -19 -13 -35 0 -30 1 -30 47 -27 48 3 63 18 45
45 -9 14 -61 25 -79 17z"/>
<path d="M1232 1851 c-8 -5 -12 -21 -10 -37 3 -31 28 -41 74 -30 34 9 33 53
-2 66 -31 12 -45 12 -62 1z"/>
<path d="M1473 1948 c-46 -22 -54 -106 -14 -142 10 -9 34 -19 54 -23 49 -8 87
29 87 84 -1 72 -63 112 -127 81z"/>
<path d="M1753 1948 c-46 -22 -54 -106 -14 -142 10 -9 34 -19 54 -23 49 -8 87
29 87 84 -1 72 -63 112 -127 81z"/>
<path d="M2222 1952 c-8 -6 -12 -23 -10 -43 3 -32 5 -34 45 -37 32 -2 44 1 51
15 12 22 -2 63 -20 63 -7 0 -22 3 -33 5 -11 3 -26 1 -33 -3z"/>
<path d="M2468 1885 l-17 -45 34 0 c19 0 35 4 35 9 0 10 -29 81 -33 81 -1 0
-10 -20 -19 -45z"/>
<path d="M2683 1953 c-8 -3 -13 -23 -13 -49 l0 -44 38 0 c21 0 43 5 50 12 16
16 15 53 0 65 -17 13 -60 22 -75 16z"/>
<path d="M4302 1904 c-5 -16 -13 -37 -17 -46 -6 -15 -1 -18 30 -18 33 0 36 2
29 23 -3 12 -12 33 -19 46 l-12 24 -11 -29z"/>
<path d="M5502 1951 c-9 -5 -12 -30 -10 -87 l3 -79 42 1 c26 0 51 8 62 18 50
45 29 127 -37 145 -44 13 -44 13 -60 2z"/>
<path d="M6700 1953 c-35 -14 -50 -37 -50 -79 0 -35 5 -47 31 -68 33 -28 55
-32 93 -15 48 22 58 106 17 143 -20 18 -68 28 -91 19z"/>
<path d="M7492 1944 c-52 -36 -48 -120 8 -149 40 -21 65 -19 95 8 44 37 35
116 -15 142 -37 19 -60 19 -88 -1z"/>
<path d="M7763 1953 c-9 -3 -13 -31 -13 -89 0 -82 1 -84 24 -84 65 0 106 37
106 96 0 27 -40 74 -64 74 -8 0 -20 2 -28 4 -7 3 -19 2 -25 -1z"/>
<path d="M8013 1953 c-7 -2 -13 -18 -13 -34 0 -27 3 -29 39 -29 52 0 70 21 42
49 -20 20 -42 25 -68 14z"/>
<path d="M8013 1853 c-7 -2 -13 -20 -13 -39 0 -33 1 -34 38 -34 42 0 62 14 62
42 0 26 -53 45 -87 31z"/>
<path d="M9442 1904 c-5 -16 -13 -37 -17 -46 -6 -15 -1 -18 30 -18 33 0 36 2
29 23 -3 12 -12 33 -19 46 l-12 24 -11 -29z"/>
<path d="M9887 1880 l-15 -40 39 0 39 0 -15 36 c-8 20 -15 38 -15 40 0 2 -4 4
-8 4 -5 0 -16 -18 -25 -40z"/>
<path d="M11143 1953 c-8 -3 -13 -23 -13 -49 0 -43 0 -44 34 -44 35 0 66 21
66 44 0 31 -54 62 -87 49z"/>
<path d="M11373 1950 c-75 -31 -47 -153 39 -167 30 -4 41 -1 62 20 68 68 -12
185 -101 147z"/>
<path d="M12378 1885 l-17 -45 34 0 c19 0 35 4 35 9 0 10 -29 81 -33 81 -1 0
-10 -20 -19 -45z"/>
<path d="M15257 1880 l-15 -40 39 0 39 0 -15 36 c-8 20 -15 38 -15 40 0 2 -4
4 -8 4 -5 0 -16 -18 -25 -40z"/>
<path d="M17812 1951 c-8 -4 -12 -19 -10 -32 3 -21 8 -24 48 -24 39 0 45 3 48
22 5 32 -54 55 -86 34z"/>
<path d="M17812 1852 c-8 -5 -12 -22 -10 -38 2 -24 8 -29 35 -32 57 -6 93 29
60 57 -20 16 -70 23 -85 13z"/>
</g>
</svg>
